DavidHadashUpright-Bold_draw_HB.ufo
<glyph name="exclam" format="1">
  <advance width="732"/>
  <unicode hex="0021"/>
  <outline>
    <contour>
      <point x="279" y="61" type="curve" smooth="yes"/>
      <point x="274" y="68"/>
      <point x="270" y="77"/>
      <point x="270" y="82" type="curve" smooth="yes"/>
      <point x="270" y="88"/>
      <point x="272" y="93"/>
      <point x="276" y="97" type="curve" smooth="yes"/>
      <point x="310" y="131"/>
      <point x="346" y="172"/>
      <point x="364" y="199" type="curve" smooth="yes"/>
      <point x="369" y="207"/>
      <point x="375" y="208"/>
      <point x="380" y="208" type="curve" smooth="yes"/>
      <point x="387" y="208"/>
      <point x="390" y="204"/>
      <point x="396" y="200" type="curve" smooth="yes"/>
      <point x="417" y="186"/>
      <point x="482" y="118"/>
      <point x="500" y="108" type="curve" smooth="yes"/>
      <point x="508" y="102"/>
      <point x="515" y="95"/>
      <point x="515" y="86" type="curve" smooth="yes"/>
      <point x="515" y="79"/>
      <point x="511" y="75"/>
      <point x="506" y="65" type="curve" smooth="yes"/>
      <point x="494" y="43"/>
      <point x="438" y="-24"/>
      <point x="412" y="-39" type="curve" smooth="yes"/>
      <point x="409" y="-41"/>
      <point x="403" y="-43"/>
      <point x="400" y="-43" type="curve" smooth="yes"/>
      <point x="396" y="-43"/>
      <point x="390" y="-41"/>
      <point x="387" y="-39" type="curve" smooth="yes"/>
      <point x="361" y="-24"/>
      <point x="305" y="31"/>
    </contour>
    <contour>
      <point x="342" y="414" type="curve" smooth="yes"/>
      <point x="326" y="604"/>
      <point x="287" y="1034"/>
      <point x="287" y="1084" type="curve" smooth="yes"/>
      <point x="287" y="1106"/>
      <point x="291" y="1120"/>
      <point x="298" y="1131" type="curve" smooth="yes"/>
      <point x="335" y="1195"/>
      <point x="366" y="1240"/>
      <point x="403" y="1271" type="curve" smooth="yes"/>
      <point x="407" y="1274"/>
      <point x="416" y="1279"/>
      <point x="421" y="1279" type="curve" smooth="yes"/>
      <point x="428" y="1279"/>
      <point x="436" y="1272"/>
      <point x="436" y="1260" type="curve" smooth="yes"/>
      <point x="436" y="1219"/>
      <point x="441" y="1036"/>
      <point x="441" y="944" type="curve" smooth="yes"/>
      <point x="441" y="525" type="line" smooth="yes"/>
      <point x="441" y="516"/>
      <point x="441" y="503"/>
      <point x="438" y="489" type="curve" smooth="yes"/>
      <point x="424" y="446"/>
      <point x="395" y="396"/>
      <point x="382" y="376" type="curve" smooth="yes"/>
      <point x="376" y="369"/>
      <point x="373" y="362"/>
      <point x="364" y="362" type="curve" smooth="yes"/>
      <point x="349" y="362"/>
      <point x="344" y="393"/>
    </contour>
  </outline>
</glyph>
<glyph name="quotedbl" format="1">
  <advance width="1009"/>
  <unicode hex="0022"/>
  <outline>
    <contour>
      <point x="253" y="452" type="line"/>
      <point x="253" y="428"/>
      <point x="276" y="414"/>
      <point x="291" y="414" type="curve" smooth="yes"/>
      <point x="306" y="414"/>
      <point x="326" y="419"/>
      <point x="337" y="460" type="curve" smooth="yes"/>
      <point x="383" y="638"/>
      <point x="396" y="697"/>
      <point x="412" y="774" type="curve" smooth="yes"/>
      <point x="424" y="831"/>
      <point x="439" y="886"/>
      <point x="439" y="951" type="curve" smooth="yes"/>
      <point x="439" y="1059" type="line" smooth="yes"/>
      <point x="439" y="1075"/>
      <point x="439" y="1122"/>
      <point x="414" y="1122" type="curve" smooth="yes"/>
      <point x="402" y="1122"/>
      <point x="387" y="1117"/>
      <point x="376" y="1108" type="curve" smooth="yes"/>
      <point x="333" y="1077"/>
      <point x="253" y="1007"/>
      <point x="210" y="954" type="curve" smooth="yes"/>
      <point x="200" y="941"/>
      <point x="200" y="920"/>
      <point x="200" y="901" type="curve"/>
    </contour>
    <contour>
      <point x="663" y="452" type="line"/>
      <point x="663" y="428"/>
      <point x="686" y="414"/>
      <point x="701" y="414" type="curve" smooth="yes"/>
      <point x="717" y="414"/>
      <point x="737" y="419"/>
      <point x="747" y="460" type="curve" smooth="yes"/>
      <point x="794" y="638"/>
      <point x="807" y="697"/>
      <point x="823" y="774" type="curve" smooth="yes"/>
      <point x="835" y="831"/>
      <point x="850" y="886"/>
      <point x="850" y="951" type="curve" smooth="yes"/>
      <point x="850" y="1059" type="line" smooth="yes"/>
      <point x="850" y="1075"/>
      <point x="850" y="1122"/>
      <point x="824" y="1122" type="curve" smooth="yes"/>
      <point x="812" y="1122"/>
      <point x="797" y="1117"/>
      <point x="787" y="1108" type="curve" smooth="yes"/>
      <point x="744" y="1077"/>
      <point x="663" y="1007"/>
      <point x="620" y="954" type="curve" smooth="yes"/>
      <point x="611" y="941"/>
      <point x="611" y="920"/>
      <point x="611" y="901" type="curve"/>
    </contour>
  </outline>
</glyph>
<glyph name="dollar" format="1">
  <advance width="1016"/>
  <unicode hex="0024"/>
  <outline>
    <contour>
      <point x="188" y="174" type="curve" smooth="yes"/>
      <point x="192" y="178"/>
      <point x="197" y="181"/>
      <point x="200" y="181" type="curve" smooth="yes"/>
      <point x="208" y="181"/>
      <point x="215" y="179"/>
      <point x="226" y="176" type="curve" smooth="yes"/>
      <point x="274" y="159"/>
      <point x="376" y="131"/>
      <point x="423" y="131" type="curve" smooth="yes"/>
      <point x="431" y="131"/>
      <point x="438" y="135"/>
      <point x="438" y="151" type="curve" smooth="yes"/>
      <point x="438" y="276"/>
      <point x="439" y="417"/>
      <point x="439" y="543" type="curve" smooth="yes"/>
      <point x="439" y="550"/>
      <point x="436" y="556"/>
      <point x="428" y="559" type="curve" smooth="yes"/>
      <point x="385" y="579"/>
      <point x="255" y="647"/>
      <point x="195" y="694" type="curve" smooth="yes"/>
      <point x="154" y="724"/>
      <point x="120" y="774"/>
      <point x="120" y="860" type="curve" smooth="yes"/>
      <point x="120" y="934"/>
      <point x="140" y="1002"/>
      <point x="192" y="1072" type="curve" smooth="yes"/>
      <point x="246" y="1145"/>
      <point x="282" y="1195"/>
      <point x="403" y="1238" type="curve" smooth="yes"/>
      <point x="414" y="1242"/>
      <point x="419" y="1245"/>
      <point x="419" y="1257" type="curve" smooth="yes"/>
      <point x="419" y="1292" type="line" smooth="yes"/>
      <point x="419" y="1303"/>
      <point x="421" y="1315"/>
      <point x="428" y="1327" type="curve" smooth="yes"/>
      <point x="443" y="1349"/>
      <point x="455" y="1368"/>
      <point x="479" y="1394" type="curve" smooth="yes"/>
      <point x="482" y="1397"/>
      <point x="484" y="1399"/>
      <point x="487" y="1399" type="curve" smooth="yes"/>
      <point x="500" y="1399"/>
      <point x="501" y="1392"/>
      <point x="501" y="1371" type="curve" smooth="yes"/>
      <point x="501" y="1344"/>
      <point x="503" y="1305"/>
      <point x="503" y="1269" type="curve" smooth="yes"/>
      <point x="503" y="1265"/>
      <point x="506" y="1264"/>
      <point x="513" y="1264" type="curve" smooth="yes"/>
      <point x="626" y="1264"/>
      <point x="706" y="1249"/>
      <point x="795" y="1217" type="curve" smooth="yes"/>
      <point x="803" y="1213"/>
      <point x="807" y="1204"/>
      <point x="807" y="1199" type="curve" smooth="yes"/>
      <point x="807" y="1195"/>
      <point x="805" y="1188"/>
      <point x="799" y="1180" type="curve" smooth="yes"/>
      <point x="780" y="1145"/>
      <point x="732" y="1082"/>
      <point x="713" y="1065" type="curve" smooth="yes"/>
      <point x="706" y="1057"/>
      <point x="697" y="1054"/>
      <point x="690" y="1054" type="curve" smooth="yes"/>
      <point x="684" y="1054"/>
      <point x="677" y="1055"/>
      <point x="672" y="1057" type="curve" smooth="yes"/>
      <point x="620" y="1075"/>
      <point x="577" y="1096"/>
      <point x="520" y="1096" type="curve" smooth="yes"/>
      <point x="513" y="1096"/>
      <point x="503" y="1089"/>
      <point x="503" y="1081" type="curve" smooth="yes"/>
      <point x="503" y="749" type="line"/>
      <point x="503" y="739"/>
      <point x="509" y="727"/>
      <point x="522" y="720" type="curve" smooth="yes"/>
      <point x="568" y="694"/>
      <point x="614" y="669"/>
      <point x="676" y="638" type="curve" smooth="yes"/>
      <point x="781" y="586"/>
      <point x="860" y="515"/>
      <point x="860" y="395" type="curve" smooth="yes"/>
      <point x="860" y="287"/>
      <point x="730" y="72"/>
      <point x="532" y="-14" type="curve" smooth="yes"/>
      <point x="520" y="-20"/>
      <point x="516" y="-20"/>
      <point x="516" y="-31" type="curve" smooth="yes"/>
      <point x="516" y="-97"/>
      <point x="520" y="-172"/>
      <point x="520" y="-240" type="curve" smooth="yes"/>
      <point x="520" y="-263"/>
      <point x="518" y="-270"/>
      <point x="511" y="-285" type="curve" smooth="yes"/>
      <point x="500" y="-310"/>
      <point x="473" y="-346"/>
      <point x="459" y="-364" type="curve" smooth="yes"/>
      <point x="453" y="-369"/>
      <point x="448" y="-371"/>
      <point x="443" y="-371" type="curve" smooth="yes"/>
      <point x="431" y="-371"/>
      <point x="428" y="-357"/>
      <point x="428" y="-347" type="curve" smooth="yes"/>
      <point x="428" y="-253"/>
      <point x="436" y="-149"/>
      <point x="436" y="-52" type="curve" smooth="yes"/>
      <point x="436" y="-36"/>
      <point x="434" y="-31"/>
      <point x="416" y="-31" type="curve" smooth="yes"/>
      <point x="339" y="-31"/>
      <point x="166" y="-16"/>
      <point x="99" y="22" type="curve" smooth="yes"/>
      <point x="89" y="27"/>
      <point x="86" y="32"/>
      <point x="86" y="39" type="curve" smooth="yes"/>
      <point x="86" y="46"/>
      <point x="91" y="53"/>
      <point x="95" y="61" type="curve" smooth="yes"/>
      <point x="120" y="99"/>
      <point x="163" y="147"/>
    </contour>
    <contour>
      <point x="416" y="776" type="curve" smooth="yes"/>
      <point x="417" y="774"/>
      <point x="419" y="774"/>
      <point x="421" y="774" type="curve" smooth="yes"/>
      <point x="426" y="774"/>
      <point x="432" y="780"/>
      <point x="432" y="788" type="curve"/>
      <point x="432" y="831"/>
      <point x="424" y="1016"/>
      <point x="424" y="1074" type="curve" smooth="yes"/>
      <point x="424" y="1089"/>
      <point x="419" y="1096"/>
      <point x="407" y="1096" type="curve" smooth="yes"/>
      <point x="315" y="1096"/>
      <point x="244" y="1036"/>
      <point x="244" y="956" type="curve" smooth="yes"/>
      <point x="244" y="850"/>
      <point x="344" y="814"/>
    </contour>
    <contour>
      <point x="529" y="127" type="curve" smooth="yes"/>
      <point x="557" y="127"/>
      <point x="613" y="140"/>
      <point x="645" y="169" type="curve" smooth="yes"/>
      <point x="672" y="193"/>
      <point x="701" y="242"/>
      <point x="701" y="292" type="curve" smooth="yes"/>
      <point x="701" y="357"/>
      <point x="674" y="407"/>
      <point x="643" y="431" type="curve" smooth="yes"/>
      <point x="617" y="450"/>
      <point x="556" y="489"/>
      <point x="523" y="506" type="curve" smooth="yes"/>
      <point x="522" y="508"/>
      <point x="520" y="508"/>
      <point x="518" y="508" type="curve" smooth="yes"/>
      <point x="513" y="508"/>
      <point x="508" y="503"/>
      <point x="508" y="496" type="curve" smooth="yes"/>
      <point x="508" y="443"/>
      <point x="513" y="195"/>
      <point x="513" y="145" type="curve" smooth="yes"/>
      <point x="513" y="131"/>
      <point x="520" y="127"/>
    </contour>
  </outline>
</glyph>
<glyph name="percent" format="1">
  <advance width="1016"/>
  <unicode hex="0025"/>
  <outline>
    <contour>
      <point x="115" y="949" type="curve" smooth="yes"/>
      <point x="115" y="1045"/>
      <point x="142" y="1089"/>
      <point x="156" y="1113" type="curve" smooth="yes"/>
      <point x="183" y="1158"/>
      <point x="262" y="1245"/>
      <point x="323" y="1281" type="curve" smooth="yes"/>
      <point x="342" y="1292"/>
      <point x="368" y="1301"/>
      <point x="398" y="1301" type="curve" smooth="yes"/>
      <point x="431" y="1301"/>
      <point x="450" y="1292"/>
      <point x="472" y="1278" type="curve" smooth="yes"/>
      <point x="547" y="1224"/>
      <point x="568" y="1145"/>
      <point x="568" y="1050" type="curve" smooth="yes"/>
      <point x="568" y="966"/>
      <point x="529" y="867"/>
      <point x="501" y="817" type="curve" smooth="yes"/>
      <point x="475" y="767"/>
      <point x="410" y="667"/>
      <point x="312" y="667" type="curve" smooth="yes"/>
      <point x="249" y="667"/>
      <point x="193" y="708"/>
      <point x="169" y="747" type="curve" smooth="yes"/>
      <point x="149" y="778"/>
      <point x="115" y="831"/>
    </contour>
    <contour>
      <point x="436" y="586" type="curve" smooth="yes"/>
      <point x="593" y="848"/>
      <point x="735" y="1124"/>
      <point x="763" y="1190" type="curve" smooth="yes"/>
      <point x="773" y="1211"/>
      <point x="780" y="1222"/>
      <point x="797" y="1235" type="curve" smooth="yes"/>
      <point x="833" y="1260"/>
      <point x="853" y="1272"/>
      <point x="880" y="1289" type="curve" smooth="yes"/>
      <point x="889" y="1294"/>
      <point x="900" y="1296"/>
      <point x="905" y="1296" type="curve" smooth="yes"/>
      <point x="912" y="1296"/>
      <point x="916" y="1292"/>
      <point x="916" y="1285" type="curve" smooth="yes"/>
      <point x="916" y="1276"/>
      <point x="912" y="1267"/>
      <point x="908" y="1257" type="curve" smooth="yes"/>
      <point x="891" y="1204"/>
      <point x="592" y="692"/>
      <point x="550" y="624" type="curve" smooth="yes"/>
      <point x="500" y="539"/>
      <point x="330" y="255"/>
      <point x="277" y="135" type="curve" smooth="yes"/>
      <point x="258" y="86"/>
      <point x="248" y="65"/>
      <point x="231" y="52" type="curve" smooth="yes"/>
      <point x="202" y="29"/>
      <point x="169" y="9"/>
      <point x="149" y="2" type="curve" smooth="yes"/>
      <point x="145" y="0"/>
      <point x="140" y="0"/>
      <point x="137" y="0" type="curve" smooth="yes"/>
      <point x="123" y="0"/>
      <point x="116" y="5"/>
      <point x="116" y="18" type="curve" smooth="yes"/>
      <point x="116" y="24"/>
      <point x="118" y="29"/>
      <point x="122" y="36" type="curve" smooth="yes"/>
      <point x="183" y="151"/>
      <point x="296" y="349"/>
    </contour>
    <contour>
      <point x="443" y="948" type="curve" smooth="yes"/>
      <point x="443" y="1002"/>
      <point x="432" y="1077"/>
      <point x="423" y="1096" type="curve" smooth="yes"/>
      <point x="398" y="1149"/>
      <point x="357" y="1163"/>
      <point x="315" y="1163" type="curve" smooth="yes"/>
      <point x="256" y="1163"/>
      <point x="236" y="1081"/>
      <point x="236" y="1002" type="curve" smooth="yes"/>
      <point x="236" y="908"/>
      <point x="270" y="816"/>
      <point x="351" y="816" type="curve" smooth="yes"/>
      <point x="419" y="816"/>
      <point x="443" y="855"/>
    </contour>
    <contour>
      <point x="462" y="287" type="curve" smooth="yes"/>
      <point x="464" y="376"/>
      <point x="493" y="423"/>
      <point x="508" y="445" type="curve" smooth="yes"/>
      <point x="539" y="491"/>
      <point x="606" y="570"/>
      <point x="674" y="609" type="curve" smooth="yes"/>
      <point x="694" y="620"/>
      <point x="717" y="631"/>
      <point x="747" y="631" type="curve" smooth="yes"/>
      <point x="771" y="631"/>
      <point x="795" y="624"/>
      <point x="828" y="602" type="curve" smooth="yes"/>
      <point x="896" y="556"/>
      <point x="918" y="459"/>
      <point x="918" y="380" type="curve" smooth="yes"/>
      <point x="918" y="296"/>
      <point x="879" y="197"/>
      <point x="851" y="147" type="curve" smooth="yes"/>
      <point x="824" y="97"/>
      <point x="760" y="-4"/>
      <point x="662" y="-4" type="curve" smooth="yes"/>
      <point x="597" y="-4"/>
      <point x="545" y="38"/>
      <point x="518" y="77" type="curve" smooth="yes"/>
      <point x="501" y="101"/>
      <point x="462" y="156"/>
    </contour>
    <contour>
      <point x="794" y="277" type="curve" smooth="yes"/>
      <point x="794" y="332"/>
      <point x="781" y="405"/>
      <point x="773" y="424" type="curve" smooth="yes"/>
      <point x="749" y="477"/>
      <point x="704" y="493"/>
      <point x="663" y="493" type="curve" smooth="yes"/>
      <point x="606" y="493"/>
      <point x="586" y="410"/>
      <point x="586" y="325" type="curve" smooth="yes"/>
      <point x="586" y="233"/>
      <point x="622" y="145"/>
      <point x="699" y="145" type="curve" smooth="yes"/>
      <point x="769" y="145"/>
      <point x="794" y="185"/>
    </contour>
  </outline>
</glyph>
<glyph name="comma" format="1">
  <advance width="732"/>
  <unicode hex="002C"/>
  <outline>
    <contour>
      <point x="310" y="-22" type="curve" smooth="yes"/>
      <point x="310" y="36"/>
      <point x="294" y="82"/>
      <point x="285" y="108" type="curve" smooth="yes"/>
      <point x="284" y="113"/>
      <point x="282" y="116"/>
      <point x="282" y="122" type="curve" smooth="yes"/>
      <point x="282" y="127"/>
      <point x="284" y="133"/>
      <point x="287" y="138" type="curve" smooth="yes"/>
      <point x="306" y="166"/>
      <point x="355" y="228"/>
      <point x="387" y="265" type="curve" smooth="yes"/>
      <point x="393" y="270"/>
      <point x="398" y="272"/>
      <point x="403" y="272" type="curve" smooth="yes"/>
      <point x="409" y="272"/>
      <point x="414" y="269"/>
      <point x="417" y="263" type="curve" smooth="yes"/>
      <point x="434" y="235"/>
      <point x="475" y="156"/>
      <point x="475" y="81" type="curve" smooth="yes"/>
      <point x="475" y="18"/>
      <point x="455" y="-38"/>
      <point x="441" y="-72" type="curve" smooth="yes"/>
      <point x="423" y="-115"/>
      <point x="272" y="-390"/>
      <point x="248" y="-390" type="curve" smooth="yes"/>
      <point x="240" y="-390"/>
      <point x="229" y="-387"/>
      <point x="229" y="-378" type="curve" smooth="yes"/>
      <point x="229" y="-355"/>
      <point x="310" y="-99"/>
    </contour>
  </outline>
</glyph>
<glyph name="two" format="1">
  <advance width="1018"/>
  <unicode hex="0032"/>
  <outline>
    <contour>
      <point x="165" y="41" type="curve" smooth="yes"/>
      <point x="219" y="190"/>
      <point x="347" y="349"/>
      <point x="400" y="424" type="curve" smooth="yes"/>
      <point x="477" y="537"/>
      <point x="629" y="706"/>
      <point x="629" y="844" type="curve" smooth="yes"/>
      <point x="629" y="914"/>
      <point x="581" y="1011"/>
      <point x="487" y="1045" type="curve" smooth="yes"/>
      <point x="428" y="1068"/>
      <point x="308" y="1082"/>
      <point x="233" y="1082" type="curve" smooth="yes"/>
      <point x="214" y="1082"/>
      <point x="202" y="1088"/>
      <point x="202" y="1098" type="curve" smooth="yes"/>
      <point x="202" y="1103"/>
      <point x="207" y="1108"/>
      <point x="210" y="1115" type="curve" smooth="yes"/>
      <point x="229" y="1147"/>
      <point x="277" y="1206"/>
      <point x="310" y="1247" type="curve" smooth="yes"/>
      <point x="315" y="1253"/>
      <point x="332" y="1267"/>
      <point x="351" y="1267" type="curve" smooth="yes"/>
      <point x="373" y="1267"/>
      <point x="405" y="1265"/>
      <point x="416" y="1264" type="curve" smooth="yes"/>
      <point x="539" y="1249"/>
      <point x="669" y="1219"/>
      <point x="747" y="1124" type="curve" smooth="yes"/>
      <point x="795" y="1067"/>
      <point x="824" y="1021"/>
      <point x="824" y="918" type="curve" smooth="yes"/>
      <point x="824" y="816"/>
      <point x="751" y="708"/>
      <point x="658" y="595" type="curve" smooth="yes"/>
      <point x="571" y="489"/>
      <point x="412" y="233"/>
      <point x="410" y="190" type="curve" smooth="yes"/>
      <point x="410" y="181"/>
      <point x="416" y="172"/>
      <point x="423" y="172" type="curve" smooth="yes"/>
      <point x="882" y="172" type="line" smooth="yes"/>
      <point x="894" y="172"/>
      <point x="901" y="169"/>
      <point x="901" y="159" type="curve" smooth="yes"/>
      <point x="901" y="156"/>
      <point x="900" y="149"/>
      <point x="896" y="144" type="curve" smooth="yes"/>
      <point x="882" y="118"/>
      <point x="838" y="43"/>
      <point x="810" y="14" type="curve" smooth="yes"/>
      <point x="799" y="4"/>
      <point x="792" y="2"/>
      <point x="780" y="2" type="curve"/>
      <point x="192" y="2" type="line"/>
      <point x="171" y="2"/>
      <point x="161" y="9"/>
      <point x="161" y="24" type="curve" smooth="yes"/>
      <point x="161" y="29"/>
      <point x="163" y="34"/>
    </contour>
  </outline>
</glyph>
<glyph name="four" format="1">
  <advance width="1018"/>
  <unicode hex="0034"/>
  <outline>
    <contour>
      <point x="563" y="355" type="curve" smooth="yes"/>
      <point x="563" y="376"/>
      <point x="554" y="380"/>
      <point x="530" y="380" type="curve"/>
      <point x="171" y="380" type="line"/>
      <point x="109" y="380"/>
      <point x="91" y="450"/>
      <point x="91" y="506" type="curve" smooth="yes"/>
      <point x="91" y="622"/>
      <point x="204" y="857"/>
      <point x="233" y="908" type="curve" smooth="yes"/>
      <point x="325" y="1070"/>
      <point x="436" y="1190"/>
      <point x="600" y="1279" type="curve" smooth="yes"/>
      <point x="609" y="1285"/>
      <point x="617" y="1286"/>
      <point x="626" y="1286" type="curve" smooth="yes"/>
      <point x="647" y="1286"/>
      <point x="665" y="1272"/>
      <point x="669" y="1249" type="curve" smooth="yes"/>
      <point x="694" y="1040"/>
      <point x="696" y="614"/>
      <point x="697" y="571" type="curve" smooth="yes"/>
      <point x="699" y="552"/>
      <point x="706" y="550"/>
      <point x="717" y="550" type="curve"/>
      <point x="916" y="550" type="line"/>
      <point x="927" y="550"/>
      <point x="934" y="547"/>
      <point x="934" y="537" type="curve" smooth="yes"/>
      <point x="934" y="534"/>
      <point x="934" y="529"/>
      <point x="930" y="523" type="curve" smooth="yes"/>
      <point x="920" y="506"/>
      <point x="876" y="434"/>
      <point x="855" y="403" type="curve" smooth="yes"/>
      <point x="846" y="390"/>
      <point x="838" y="382"/>
      <point x="816" y="382" type="curve" smooth="yes"/>
      <point x="718" y="382" type="line"/>
      <point x="703" y="382"/>
      <point x="701" y="378"/>
      <point x="701" y="366" type="curve" smooth="yes"/>
      <point x="701" y="346"/>
      <point x="703" y="217"/>
      <point x="703" y="144" type="curve"/>
      <point x="703" y="127"/>
      <point x="701" y="116"/>
      <point x="694" y="101" type="curve" smooth="yes"/>
      <point x="677" y="67"/>
      <point x="643" y="4"/>
      <point x="606" y="-36" type="curve" smooth="yes"/>
      <point x="600" y="-41"/>
      <point x="593" y="-45"/>
      <point x="588" y="-45" type="curve" smooth="yes"/>
      <point x="577" y="-45"/>
      <point x="568" y="-36"/>
      <point x="568" y="-16" type="curve" smooth="yes"/>
      <point x="568" y="111"/>
      <point x="563" y="330"/>
    </contour>
    <contour>
      <point x="523" y="1019" type="curve" smooth="yes"/>
      <point x="522" y="1036"/>
      <point x="515" y="1043"/>
      <point x="501" y="1043" type="curve" smooth="yes"/>
      <point x="496" y="1043"/>
      <point x="487" y="1040"/>
      <point x="480" y="1036" type="curve" smooth="yes"/>
      <point x="412" y="1002"/>
      <point x="371" y="951"/>
      <point x="340" y="910" type="curve" smooth="yes"/>
      <point x="291" y="838"/>
      <point x="212" y="662"/>
      <point x="212" y="607" type="curve" smooth="yes"/>
      <point x="212" y="568"/>
      <point x="228" y="550"/>
      <point x="251" y="550" type="curve"/>
      <point x="541" y="550" type="line"/>
      <point x="549" y="550"/>
      <point x="557" y="559"/>
      <point x="557" y="571" type="curve" smooth="yes"/>
      <point x="556" y="638"/>
      <point x="547" y="857"/>
    </contour>
  </outline>
</glyph>
<glyph name="six" format="1">
  <advance width="1018"/>
  <unicode hex="0036"/>
  <outline>
    <contour>
      <point x="199" y="619" type="curve" smooth="yes"/>
      <point x="272" y="767"/>
      <point x="475" y="1062"/>
      <point x="588" y="1190" type="curve" smooth="yes"/>
      <point x="604" y="1208"/>
      <point x="624" y="1217"/>
      <point x="633" y="1224" type="curve" smooth="yes"/>
      <point x="658" y="1238"/>
      <point x="749" y="1283"/>
      <point x="774" y="1283" type="curve" smooth="yes"/>
      <point x="785" y="1283"/>
      <point x="790" y="1278"/>
      <point x="790" y="1271" type="curve" smooth="yes"/>
      <point x="790" y="1257"/>
      <point x="756" y="1215"/>
      <point x="724" y="1172" type="curve" smooth="yes"/>
      <point x="684" y="1118"/>
      <point x="421" y="747"/>
      <point x="421" y="727" type="curve" smooth="yes"/>
      <point x="421" y="725"/>
      <point x="424" y="722"/>
      <point x="426" y="722" type="curve" smooth="yes"/>
      <point x="428" y="722"/>
      <point x="500" y="781"/>
      <point x="593" y="781" type="curve" smooth="yes"/>
      <point x="701" y="781"/>
      <point x="774" y="733"/>
      <point x="821" y="684" type="curve" smooth="yes"/>
      <point x="882" y="624"/>
      <point x="918" y="534"/>
      <point x="918" y="414" type="curve" smooth="yes"/>
      <point x="918" y="292"/>
      <point x="838" y="166"/>
      <point x="744" y="82" type="curve" smooth="yes"/>
      <point x="663" y="11"/>
      <point x="573" y="-29"/>
      <point x="473" y="-29" type="curve" smooth="yes"/>
      <point x="285" y="-29"/>
      <point x="118" y="161"/>
      <point x="118" y="342" type="curve" smooth="yes"/>
      <point x="118" y="452"/>
      <point x="158" y="537"/>
    </contour>
    <contour>
      <point x="722" y="522" type="curve" smooth="yes"/>
      <point x="674" y="588"/>
      <point x="597" y="631"/>
      <point x="509" y="631" type="curve" smooth="yes"/>
      <point x="385" y="631"/>
      <point x="272" y="541"/>
      <point x="272" y="405" type="curve" smooth="yes"/>
      <point x="272" y="255"/>
      <point x="390" y="135"/>
      <point x="541" y="135" type="curve" smooth="yes"/>
      <point x="672" y="135"/>
      <point x="765" y="233"/>
      <point x="765" y="369" type="curve" smooth="yes"/>
      <point x="765" y="414"/>
      <point x="754" y="479"/>
    </contour>
  </outline>
</glyph>
<glyph name="greater" format="1">
  <advance width="1018"/>
  <unicode hex="003E"/>
  <outline>
    <contour>
      <point x="869" y="503" type="line"/>
      <point x="889" y="515"/>
      <point x="900" y="522"/>
      <point x="900" y="537" type="curve" smooth="yes"/>
      <point x="900" y="597" type="line" smooth="yes"/>
      <point x="900" y="614"/>
      <point x="887" y="622"/>
      <point x="869" y="631" type="curve" smooth="yes"/>
      <point x="805" y="665"/>
      <point x="622" y="760"/>
      <point x="541" y="807" type="curve" smooth="yes"/>
      <point x="453" y="857"/>
      <point x="202" y="1005"/>
      <point x="202" y="1005" type="curve" smooth="yes"/>
      <point x="199" y="1007"/>
      <point x="193" y="1009"/>
      <point x="188" y="1009" type="curve" smooth="yes"/>
      <point x="181" y="1009"/>
      <point x="172" y="1005"/>
      <point x="165" y="993" type="curve" smooth="yes"/>
      <point x="127" y="921" type="line" smooth="yes"/>
      <point x="123" y="916"/>
      <point x="122" y="912"/>
      <point x="122" y="907" type="curve" smooth="yes"/>
      <point x="122" y="900"/>
      <point x="127" y="893"/>
      <point x="138" y="884" type="curve" smooth="yes"/>
      <point x="138" y="884"/>
      <point x="402" y="751"/>
      <point x="473" y="710" type="curve" smooth="yes"/>
      <point x="715" y="570" type="line"/>
      <point x="638" y="523"/>
      <point x="536" y="464"/>
      <point x="473" y="428" type="curve" smooth="yes"/>
      <point x="385" y="378"/>
      <point x="131" y="249"/>
      <point x="131" y="249" type="curve" smooth="yes"/>
      <point x="125" y="246"/>
      <point x="116" y="238"/>
      <point x="116" y="226" type="curve" smooth="yes"/>
      <point x="116" y="221"/>
      <point x="118" y="215"/>
      <point x="122" y="210" type="curve" smooth="yes"/>
      <point x="165" y="142" type="line" smooth="yes"/>
      <point x="171" y="133"/>
      <point x="174" y="127"/>
      <point x="183" y="127" type="curve" smooth="yes"/>
      <point x="188" y="127"/>
      <point x="195" y="129"/>
      <point x="202" y="133" type="curve" smooth="yes"/>
      <point x="202" y="133"/>
      <point x="472" y="294"/>
      <point x="547" y="333" type="curve" smooth="yes"/>
    </contour>
  </outline>
</glyph>
<glyph name="bracketright" format="1">
  <advance width="730"/>
  <unicode hex="005D"/>
  <outline>
    <contour>
      <point x="588" y="-125" type="curve" smooth="yes"/>
      <point x="588" y="101"/>
      <point x="577" y="326"/>
      <point x="577" y="552" type="curve" smooth="yes"/>
      <point x="577" y="735"/>
      <point x="595" y="1023"/>
      <point x="595" y="1096" type="curve" smooth="yes"/>
      <point x="595" y="1170"/>
      <point x="561" y="1242"/>
      <point x="482" y="1242" type="curve"/>
      <point x="101" y="1242" type="line"/>
      <point x="89" y="1242"/>
      <point x="82" y="1242"/>
      <point x="82" y="1236" type="curve" smooth="yes"/>
      <point x="82" y="1235"/>
      <point x="84" y="1231"/>
      <point x="88" y="1228" type="curve" smooth="yes"/>
      <point x="111" y="1199"/>
      <point x="140" y="1168"/>
      <point x="165" y="1151" type="curve" smooth="yes"/>
      <point x="179" y="1140"/>
      <point x="185" y="1138"/>
      <point x="195" y="1138" type="curve"/>
      <point x="395" y="1138" type="line"/>
      <point x="417" y="1138"/>
      <point x="452" y="1118"/>
      <point x="453" y="1077" type="curve" smooth="yes"/>
      <point x="457" y="1007"/>
      <point x="459" y="613"/>
      <point x="459" y="541" type="curve" smooth="yes"/>
      <point x="459" y="477"/>
      <point x="450" y="25"/>
      <point x="448" y="-81" type="curve" smooth="yes"/>
      <point x="448" y="-123"/>
      <point x="426" y="-144"/>
      <point x="389" y="-144" type="curve"/>
      <point x="113" y="-144" type="line"/>
      <point x="93" y="-144"/>
      <point x="84" y="-145"/>
      <point x="84" y="-152" type="curve" smooth="yes"/>
      <point x="84" y="-156"/>
      <point x="88" y="-161"/>
      <point x="93" y="-169" type="curve" smooth="yes"/>
      <point x="111" y="-188"/>
      <point x="151" y="-229"/>
      <point x="163" y="-238" type="curve" smooth="yes"/>
      <point x="174" y="-246"/>
      <point x="185" y="-246"/>
      <point x="197" y="-246" type="curve" smooth="yes"/>
      <point x="434" y="-246" type="line"/>
      <point x="457" y="-246"/>
      <point x="515" y="-244"/>
      <point x="545" y="-221" type="curve" smooth="yes"/>
      <point x="575" y="-195"/>
      <point x="588" y="-166"/>
    </contour>
  </outline>
</glyph>
<glyph name="braceright" format="1">
  <advance width="732"/>
  <unicode hex="007D"/>
  <outline>
    <contour>
      <point x="487" y="506" type="curve" smooth="yes"/>
      <point x="487" y="494"/>
      <point x="477" y="487"/>
      <point x="477" y="487" type="curve"/>
      <point x="407" y="434"/>
      <point x="371" y="400"/>
      <point x="371" y="298" type="curve" smooth="yes"/>
      <point x="371" y="43" type="line" smooth="yes"/>
      <point x="371" y="-18"/>
      <point x="368" y="-86"/>
      <point x="291" y="-104" type="curve" smooth="yes"/>
      <point x="272" y="-108"/>
      <point x="197" y="-123"/>
      <point x="179" y="-129" type="curve" smooth="yes"/>
      <point x="165" y="-133"/>
      <point x="154" y="-144"/>
      <point x="142" y="-158" type="curve" smooth="yes"/>
      <point x="120" y="-183"/>
      <point x="97" y="-210"/>
      <point x="82" y="-229" type="curve" smooth="yes"/>
      <point x="75" y="-240"/>
      <point x="65" y="-253"/>
      <point x="65" y="-267" type="curve" smooth="yes"/>
      <point x="65" y="-274"/>
      <point x="70" y="-279"/>
      <point x="84" y="-279" type="curve" smooth="yes"/>
      <point x="101" y="-279"/>
      <point x="267" y="-265"/>
      <point x="349" y="-249" type="curve" smooth="yes"/>
      <point x="508" y="-219"/>
      <point x="573" y="-113"/>
      <point x="573" y="55" type="curve" smooth="yes"/>
      <point x="573" y="333" type="line" smooth="yes"/>
      <point x="573" y="393"/>
      <point x="573" y="436"/>
      <point x="652" y="472" type="curve" smooth="yes"/>
      <point x="667" y="479"/>
      <point x="672" y="493"/>
      <point x="672" y="506" type="curve" smooth="yes"/>
      <point x="672" y="518"/>
      <point x="667" y="529"/>
      <point x="652" y="536" type="curve" smooth="yes"/>
      <point x="573" y="571"/>
      <point x="573" y="617"/>
      <point x="573" y="676" type="curve" smooth="yes"/>
      <point x="573" y="956" type="line" smooth="yes"/>
      <point x="573" y="1124"/>
      <point x="532" y="1209"/>
      <point x="382" y="1253" type="curve" smooth="yes"/>
      <point x="337" y="1265"/>
      <point x="248" y="1291"/>
      <point x="231" y="1291" type="curve" smooth="yes"/>
      <point x="222" y="1291"/>
      <point x="207" y="1289"/>
      <point x="195" y="1283" type="curve" smooth="yes"/>
      <point x="166" y="1269"/>
      <point x="118" y="1240"/>
      <point x="102" y="1229" type="curve" smooth="yes"/>
      <point x="84" y="1219"/>
      <point x="65" y="1206"/>
      <point x="65" y="1194" type="curve" smooth="yes"/>
      <point x="65" y="1180"/>
      <point x="75" y="1175"/>
      <point x="91" y="1170" type="curve" smooth="yes"/>
      <point x="272" y="1120" type="line" smooth="yes"/>
      <point x="353" y="1096"/>
      <point x="369" y="1041"/>
      <point x="369" y="984" type="curve" smooth="yes"/>
      <point x="369" y="713" type="line" smooth="yes"/>
      <point x="369" y="611"/>
      <point x="407" y="577"/>
      <point x="477" y="523" type="curve"/>
      <point x="477" y="523"/>
      <point x="487" y="518"/>
    </contour>
  </outline>
</glyph>
<glyph name="section" format="1">
  <advance width="874"/>
  <unicode hex="00A7"/>
  <outline>
    <contour>
      <point x="240" y="-46" type="curve"/>
      <point x="238" y="-43"/>
      <point x="233" y="-41"/>
      <point x="231" y="-41" type="curve" smooth="yes"/>
      <point x="226" y="-41"/>
      <point x="224" y="-43"/>
      <point x="221" y="-52" type="curve" smooth="yes"/>
      <point x="202" y="-84"/>
      <point x="154" y="-200"/>
      <point x="149" y="-221" type="curve" smooth="yes"/>
      <point x="147" y="-226"/>
      <point x="145" y="-228"/>
      <point x="145" y="-233" type="curve" smooth="yes"/>
      <point x="145" y="-238"/>
      <point x="147" y="-242"/>
      <point x="154" y="-248" type="curve" smooth="yes"/>
      <point x="208" y="-287"/>
      <point x="342" y="-312"/>
      <point x="412" y="-312" type="curve" smooth="yes"/>
      <point x="537" y="-312"/>
      <point x="638" y="-231"/>
      <point x="722" y="-135" type="curve" smooth="yes"/>
      <point x="761" y="-91"/>
      <point x="799" y="-29"/>
      <point x="799" y="55" type="curve" smooth="yes"/>
      <point x="799" y="144"/>
      <point x="747" y="199"/>
      <point x="674" y="229" type="curve"/>
      <point x="732" y="267"/>
      <point x="776" y="306"/>
      <point x="810" y="353" type="curve"/>
      <point x="850" y="396"/>
      <point x="867" y="468"/>
      <point x="867" y="520" type="curve" smooth="yes"/>
      <point x="867" y="627"/>
      <point x="824" y="674"/>
      <point x="684" y="730" type="curve" smooth="yes"/>
      <point x="462" y="819" type="line" smooth="yes"/>
      <point x="414" y="838"/>
      <point x="380" y="876"/>
      <point x="380" y="910" type="curve" smooth="yes"/>
      <point x="380" y="1005"/>
      <point x="426" y="1031"/>
      <point x="516" y="1031" type="curve" smooth="yes"/>
      <point x="600" y="1031"/>
      <point x="652" y="997"/>
      <point x="725" y="948" type="curve" smooth="yes"/>
      <point x="732" y="944"/>
      <point x="737" y="941"/>
      <point x="740" y="941" type="curve" smooth="yes"/>
      <point x="747" y="941"/>
      <point x="751" y="948"/>
      <point x="754" y="957" type="curve" smooth="yes"/>
      <point x="765" y="987"/>
      <point x="790" y="1084"/>
      <point x="801" y="1113" type="curve"/>
      <point x="805" y="1127"/>
      <point x="805" y="1131"/>
      <point x="805" y="1132" type="curve" smooth="yes"/>
      <point x="805" y="1138"/>
      <point x="801" y="1142"/>
      <point x="790" y="1147" type="curve" smooth="yes"/>
      <point x="771" y="1158"/>
      <point x="676" y="1183"/>
      <point x="629" y="1183" type="curve" smooth="yes"/>
      <point x="586" y="1183"/>
      <point x="545" y="1175"/>
      <point x="508" y="1163" type="curve"/>
      <point x="373" y="1104"/>
      <point x="212" y="984"/>
      <point x="212" y="824" type="curve" smooth="yes"/>
      <point x="212" y="754"/>
      <point x="235" y="696"/>
      <point x="328" y="648" type="curve"/>
      <point x="222" y="579"/>
      <point x="144" y="494"/>
      <point x="144" y="346" type="curve" smooth="yes"/>
      <point x="144" y="236"/>
      <point x="199" y="188"/>
      <point x="270" y="154" type="curve"/>
      <point x="361" y="118"/>
      <point x="450" y="89"/>
      <point x="537" y="52" type="curve" smooth="yes"/>
      <point x="581" y="32"/>
      <point x="619" y="16"/>
      <point x="619" y="-50" type="curve" smooth="yes"/>
      <point x="619" y="-91"/>
      <point x="606" y="-122"/>
      <point x="585" y="-135" type="curve" smooth="yes"/>
      <point x="566" y="-147"/>
      <point x="529" y="-149"/>
      <point x="506" y="-149" type="curve" smooth="yes"/>
      <point x="412" y="-149"/>
      <point x="305" y="-108"/>
    </contour>
    <contour>
      <point x="600" y="536" type="line"/>
      <point x="652" y="511"/>
      <point x="683" y="477"/>
      <point x="683" y="424" type="curve" smooth="yes"/>
      <point x="683" y="385"/>
      <point x="665" y="340"/>
      <point x="631" y="321" type="curve"/>
      <point x="609" y="305"/>
      <point x="581" y="292"/>
      <point x="557" y="292" type="curve" smooth="yes"/>
      <point x="513" y="292"/>
      <point x="472" y="312"/>
      <point x="436" y="325" type="curve" smooth="yes"/>
      <point x="409" y="333" type="line"/>
      <point x="369" y="353"/>
      <point x="323" y="385"/>
      <point x="323" y="432" type="curve" smooth="yes"/>
      <point x="323" y="525"/>
      <point x="373" y="581"/>
      <point x="468" y="581" type="curve" smooth="yes"/>
      <point x="494" y="581"/>
      <point x="508" y="577"/>
      <point x="527" y="568" type="curve" smooth="yes"/>
    </contour>
  </outline>
</glyph>
<glyph name="guillemotleft" format="1">
  <advance width="732"/>
  <unicode hex="00AB"/>
  <outline>
    <contour>
      <point x="174" y="643" type="curve" smooth="yes"/>
      <point x="145" y="607"/>
      <point x="101" y="543"/>
      <point x="79" y="498" type="curve" smooth="yes"/>
      <point x="75" y="491"/>
      <point x="72" y="480"/>
      <point x="72" y="472" type="curve" smooth="yes"/>
      <point x="72" y="460"/>
      <point x="75" y="450"/>
      <point x="88" y="431" type="curve" smooth="yes"/>
      <point x="115" y="385"/>
      <point x="176" y="317"/>
      <point x="224" y="276" type="curve" smooth="yes"/>
      <point x="233" y="269"/>
      <point x="238" y="267"/>
      <point x="242" y="267" type="curve" smooth="yes"/>
      <point x="248" y="267"/>
      <point x="255" y="270"/>
      <point x="260" y="276" type="curve" smooth="yes"/>
      <point x="291" y="310"/>
      <point x="313" y="347"/>
      <point x="326" y="369" type="curve"/>
      <point x="326" y="369"/>
      <point x="337" y="389"/>
      <point x="337" y="398" type="curve" smooth="yes"/>
      <point x="337" y="403"/>
      <point x="335" y="412"/>
      <point x="330" y="417" type="curve"/>
      <point x="249" y="500" type="line"/>
      <point x="244" y="506"/>
      <point x="240" y="516"/>
      <point x="240" y="522" type="curve" smooth="yes"/>
      <point x="240" y="527"/>
      <point x="240" y="534"/>
      <point x="246" y="543" type="curve" smooth="yes"/>
      <point x="267" y="586"/>
      <point x="296" y="638"/>
      <point x="317" y="683" type="curve" smooth="yes"/>
      <point x="321" y="690"/>
      <point x="323" y="697"/>
      <point x="323" y="703" type="curve" smooth="yes"/>
      <point x="323" y="710"/>
      <point x="315" y="715"/>
      <point x="306" y="715" type="curve" smooth="yes"/>
      <point x="303" y="715"/>
      <point x="298" y="715"/>
      <point x="291" y="711" type="curve" smooth="yes"/>
      <point x="276" y="706"/>
      <point x="228" y="683"/>
      <point x="219" y="677" type="curve" smooth="yes"/>
      <point x="207" y="670"/>
      <point x="190" y="665"/>
    </contour>
    <contour>
      <point x="477" y="643" type="curve" smooth="yes"/>
      <point x="448" y="607"/>
      <point x="403" y="543"/>
      <point x="382" y="498" type="curve" smooth="yes"/>
      <point x="378" y="491"/>
      <point x="375" y="480"/>
      <point x="375" y="472" type="curve" smooth="yes"/>
      <point x="375" y="460"/>
      <point x="378" y="450"/>
      <point x="390" y="431" type="curve" smooth="yes"/>
      <point x="417" y="385"/>
      <point x="479" y="317"/>
      <point x="527" y="276" type="curve" smooth="yes"/>
      <point x="536" y="269"/>
      <point x="541" y="267"/>
      <point x="545" y="267" type="curve" smooth="yes"/>
      <point x="550" y="267"/>
      <point x="557" y="270"/>
      <point x="563" y="276" type="curve" smooth="yes"/>
      <point x="593" y="310"/>
      <point x="617" y="347"/>
      <point x="629" y="369" type="curve"/>
      <point x="629" y="369"/>
      <point x="640" y="389"/>
      <point x="640" y="398" type="curve" smooth="yes"/>
      <point x="640" y="403"/>
      <point x="638" y="412"/>
      <point x="633" y="417" type="curve" smooth="yes"/>
      <point x="552" y="500" type="line" smooth="yes"/>
      <point x="547" y="506"/>
      <point x="543" y="516"/>
      <point x="543" y="522" type="curve" smooth="yes"/>
      <point x="543" y="527"/>
      <point x="543" y="534"/>
      <point x="549" y="543" type="curve" smooth="yes"/>
      <point x="570" y="586"/>
      <point x="599" y="638"/>
      <point x="620" y="683" type="curve" smooth="yes"/>
      <point x="624" y="690"/>
      <point x="626" y="697"/>
      <point x="626" y="703" type="curve" smooth="yes"/>
      <point x="626" y="710"/>
      <point x="619" y="715"/>
      <point x="609" y="715" type="curve" smooth="yes"/>
      <point x="606" y="715"/>
      <point x="600" y="715"/>
      <point x="593" y="711" type="curve" smooth="yes"/>
      <point x="579" y="706"/>
      <point x="530" y="683"/>
      <point x="522" y="677" type="curve" smooth="yes"/>
      <point x="509" y="670"/>
      <point x="493" y="665"/>
    </contour>
  </outline>
</glyph>
<glyph name="logicalnot" format="1">
  <advance width="975"/>
  <unicode hex="00AC"/>
  <outline>
    <contour>
      <point x="826" y="638" type="curve" smooth="yes"/>
      <point x="697" y="640"/>
      <point x="137" y="645"/>
      <point x="137" y="645" type="curve"/>
      <point x="113" y="645"/>
      <point x="108" y="634"/>
      <point x="108" y="617" type="curve" smooth="yes"/>
      <point x="108" y="513" type="line" smooth="yes"/>
      <point x="108" y="496"/>
      <point x="113" y="486"/>
      <point x="137" y="486" type="curve" smooth="yes"/>
      <point x="137" y="486"/>
      <point x="577" y="493"/>
      <point x="703" y="494" type="curve"/>
      <point x="701" y="364"/>
      <point x="697" y="199"/>
      <point x="697" y="199" type="curve"/>
      <point x="697" y="176"/>
      <point x="708" y="171"/>
      <point x="725" y="171" type="curve" smooth="yes"/>
      <point x="831" y="171" type="line" smooth="yes"/>
      <point x="848" y="171"/>
      <point x="858" y="176"/>
      <point x="858" y="199" type="curve" smooth="yes"/>
      <point x="858" y="199"/>
      <point x="853" y="482"/>
      <point x="851" y="609" type="curve" smooth="yes"/>
      <point x="851" y="634"/>
      <point x="843" y="638"/>
    </contour>
  </outline>
</glyph>
<glyph name="plusminus" format="1">
  <advance width="1018"/>
  <unicode hex="00B1"/>
  <outline>
    <contour>
      <point x="443" y="244" type="curve"/>
      <point x="443" y="221"/>
      <point x="453" y="215"/>
      <point x="472" y="215" type="curve" smooth="yes"/>
      <point x="549" y="215" type="line" smooth="yes"/>
      <point x="564" y="215"/>
      <point x="575" y="221"/>
      <point x="575" y="244" type="curve" smooth="yes"/>
      <point x="575" y="244"/>
      <point x="571" y="412"/>
      <point x="570" y="539" type="curve"/>
      <point x="667" y="537"/>
      <point x="855" y="534"/>
      <point x="855" y="534" type="curve"/>
      <point x="879" y="534"/>
      <point x="884" y="545"/>
      <point x="884" y="561" type="curve" smooth="yes"/>
      <point x="884" y="638" type="line" smooth="yes"/>
      <point x="884" y="663"/>
      <point x="874" y="667"/>
      <point x="858" y="667" type="curve" smooth="yes"/>
      <point x="858" y="667"/>
      <point x="681" y="662"/>
      <point x="570" y="662" type="curve"/>
      <point x="570" y="761"/>
      <point x="575" y="948"/>
      <point x="575" y="948" type="curve"/>
      <point x="575" y="971"/>
      <point x="564" y="977"/>
      <point x="549" y="977" type="curve" smooth="yes"/>
      <point x="472" y="977" type="line" smooth="yes"/>
      <point x="446" y="977"/>
      <point x="443" y="963"/>
      <point x="443" y="951" type="curve" smooth="yes"/>
      <point x="443" y="951"/>
      <point x="446" y="774"/>
      <point x="448" y="662" type="curve"/>
      <point x="319" y="663"/>
      <point x="161" y="667"/>
      <point x="161" y="667" type="curve"/>
      <point x="138" y="667"/>
      <point x="133" y="656"/>
      <point x="133" y="638" type="curve" smooth="yes"/>
      <point x="133" y="561" type="line" smooth="yes"/>
      <point x="133" y="545"/>
      <point x="138" y="534"/>
      <point x="161" y="534" type="curve" smooth="yes"/>
      <point x="161" y="534"/>
      <point x="323" y="537"/>
      <point x="448" y="539" type="curve"/>
      <point x="446" y="409"/>
      <point x="443" y="244"/>
    </contour>
    <contour>
      <point x="161" y="137" type="curve"/>
      <point x="138" y="137"/>
      <point x="133" y="125"/>
      <point x="133" y="108" type="curve" smooth="yes"/>
      <point x="133" y="31" type="line" smooth="yes"/>
      <point x="133" y="14"/>
      <point x="138" y="4"/>
      <point x="161" y="4" type="curve" smooth="yes"/>
      <point x="161" y="4"/>
      <point x="412" y="9"/>
      <point x="511" y="9" type="curve" smooth="yes"/>
      <point x="593" y="9"/>
      <point x="855" y="4"/>
      <point x="855" y="4" type="curve"/>
      <point x="879" y="4"/>
      <point x="884" y="14"/>
      <point x="884" y="31" type="curve" smooth="yes"/>
      <point x="884" y="108" type="line" smooth="yes"/>
      <point x="884" y="133"/>
      <point x="869" y="137"/>
      <point x="858" y="137" type="curve" smooth="yes"/>
      <point x="858" y="137"/>
      <point x="609" y="131"/>
      <point x="508" y="131" type="curve" smooth="yes"/>
      <point x="390" y="131"/>
      <point x="161" y="137"/>
    </contour>
  </outline>
</glyph>
<glyph name="paragraph" format="1">
  <advance width="973"/>
  <unicode hex="00B6"/>
  <outline>
    <contour>
      <point x="1031" y="1104" type="curve" smooth="yes"/>
      <point x="1040" y="1115"/>
      <point x="1043" y="1120"/>
      <point x="1043" y="1127" type="curve" smooth="yes"/>
      <point x="1043" y="1131"/>
      <point x="1040" y="1134"/>
      <point x="1027" y="1136" type="curve" smooth="yes"/>
      <point x="876" y="1158"/>
      <point x="697" y="1181"/>
      <point x="597" y="1181" type="curve" smooth="yes"/>
      <point x="501" y="1181"/>
      <point x="417" y="1156"/>
      <point x="328" y="1091" type="curve" smooth="yes"/>
      <point x="208" y="1005"/>
      <point x="106" y="907"/>
      <point x="106" y="753" type="curve" smooth="yes"/>
      <point x="106" y="571"/>
      <point x="208" y="453"/>
      <point x="382" y="383" type="curve" smooth="yes"/>
      <point x="395" y="378"/>
      <point x="409" y="376"/>
      <point x="419" y="376" type="curve" smooth="yes"/>
      <point x="438" y="376"/>
      <point x="445" y="383"/>
      <point x="457" y="398" type="curve" smooth="yes"/>
      <point x="482" y="426"/>
      <point x="529" y="486"/>
      <point x="568" y="541" type="curve" smooth="yes"/>
      <point x="577" y="554"/>
      <point x="583" y="564"/>
      <point x="583" y="571" type="curve" smooth="yes"/>
      <point x="583" y="583"/>
      <point x="570" y="588"/>
      <point x="534" y="588" type="curve" smooth="yes"/>
      <point x="409" y="588"/>
      <point x="317" y="681"/>
      <point x="317" y="819" type="curve" smooth="yes"/>
      <point x="317" y="977"/>
      <point x="398" y="1043"/>
      <point x="508" y="1043" type="curve" smooth="yes"/>
      <point x="557" y="1043"/>
      <point x="592" y="1043"/>
      <point x="636" y="1033" type="curve" smooth="yes"/>
      <point x="647" y="1031"/>
      <point x="652" y="1023"/>
      <point x="652" y="1018" type="curve" smooth="yes"/>
      <point x="655" y="928"/>
      <point x="656" y="833"/>
      <point x="656" y="739" type="curve" smooth="yes"/>
      <point x="656" y="214" type="line" smooth="yes"/>
      <point x="656" y="82"/>
      <point x="656" y="-36"/>
      <point x="652" y="-131" type="curve" smooth="yes"/>
      <point x="650" y="-200"/>
      <point x="602" y="-342"/>
      <point x="602" y="-351" type="curve" smooth="yes"/>
      <point x="602" y="-361"/>
      <point x="611" y="-368"/>
      <point x="620" y="-368" type="curve" smooth="yes"/>
      <point x="631" y="-368"/>
      <point x="648" y="-357"/>
      <point x="655" y="-351" type="curve" smooth="yes"/>
      <point x="708" y="-305"/>
      <point x="722" y="-285"/>
      <point x="753" y="-251" type="curve" smooth="yes"/>
      <point x="778" y="-222"/>
      <point x="778" y="-195"/>
      <point x="778" y="-165" type="curve" smooth="yes"/>
      <point x="778" y="-158"/>
      <point x="774" y="-122"/>
      <point x="774" y="-84" type="curve" smooth="yes"/>
      <point x="774" y="1002" type="line" smooth="yes"/>
      <point x="774" y="1009"/>
      <point x="778" y="1011"/>
      <point x="783" y="1011" type="curve" smooth="yes"/>
      <point x="799" y="1009"/>
      <point x="851" y="1005"/>
      <point x="858" y="1002" type="curve" smooth="yes"/>
      <point x="864" y="1000"/>
      <point x="867" y="997"/>
      <point x="867" y="984" type="curve" smooth="yes"/>
      <point x="867" y="-39" type="line" smooth="yes"/>
      <point x="867" y="-101"/>
      <point x="864" y="-131"/>
      <point x="864" y="-161" type="curve" smooth="yes"/>
      <point x="864" y="-171"/>
      <point x="869" y="-174"/>
      <point x="874" y="-174" type="curve" smooth="yes"/>
      <point x="886" y="-174"/>
      <point x="896" y="-166"/>
      <point x="903" y="-161" type="curve" smooth="yes"/>
      <point x="928" y="-144"/>
      <point x="959" y="-115"/>
      <point x="978" y="-86" type="curve" smooth="yes"/>
      <point x="985" y="-77"/>
      <point x="987" y="-61"/>
      <point x="987" y="-46" type="curve" smooth="yes"/>
      <point x="987" y="-32"/>
      <point x="985" y="46"/>
      <point x="985" y="60" type="curve" smooth="yes"/>
      <point x="985" y="944" type="line" smooth="yes"/>
      <point x="985" y="1014"/>
      <point x="1016" y="1086"/>
    </contour>
  </outline>
</glyph>
<glyph name="divide" format="1">
  <advance width="1018"/>
  <unicode hex="00F7"/>
  <outline>
    <contour>
      <point x="600" y="835" type="curve" smooth="yes"/>
      <point x="600" y="788"/>
      <point x="559" y="749"/>
      <point x="513" y="749" type="curve" smooth="yes"/>
      <point x="462" y="749"/>
      <point x="423" y="788"/>
      <point x="423" y="835" type="curve" smooth="yes"/>
      <point x="423" y="884"/>
      <point x="462" y="923"/>
      <point x="513" y="923" type="curve" smooth="yes"/>
      <point x="559" y="923"/>
      <point x="600" y="884"/>
    </contour>
    <contour>
      <point x="599" y="298" type="curve" smooth="yes"/>
      <point x="599" y="251"/>
      <point x="557" y="212"/>
      <point x="511" y="212" type="curve" smooth="yes"/>
      <point x="460" y="212"/>
      <point x="421" y="251"/>
      <point x="421" y="298" type="curve" smooth="yes"/>
      <point x="421" y="346"/>
      <point x="460" y="385"/>
      <point x="511" y="385" type="curve" smooth="yes"/>
      <point x="557" y="385"/>
      <point x="599" y="346"/>
    </contour>
    <component base="minus"/>
  </outline>
</glyph>
<glyph name="uni0597" format="1">
  <advance width="0"/>
  <unicode hex="0597"/>
  <outline>
    <contour>
      <point x="93" y="1362" type="curve" smooth="yes"/>
      <point x="89" y="1368"/>
      <point x="84" y="1373"/>
      <point x="84" y="1382" type="curve" smooth="yes"/>
      <point x="84" y="1389"/>
      <point x="91" y="1396"/>
      <point x="97" y="1404" type="curve" smooth="yes"/>
      <point x="131" y="1443"/>
      <point x="151" y="1471"/>
      <point x="192" y="1532" type="curve" smooth="yes"/>
      <point x="197" y="1541"/>
      <point x="204" y="1544"/>
      <point x="210" y="1544" type="curve" smooth="yes"/>
      <point x="214" y="1544"/>
      <point x="219" y="1541"/>
      <point x="226" y="1534" type="curve" smooth="yes"/>
      <point x="255" y="1502"/>
      <point x="299" y="1446"/>
      <point x="339" y="1412" type="curve" smooth="yes"/>
      <point x="344" y="1407"/>
      <point x="351" y="1402"/>
      <point x="351" y="1392" type="curve" smooth="yes"/>
      <point x="351" y="1389"/>
      <point x="347" y="1380"/>
      <point x="342" y="1371" type="curve" smooth="yes"/>
      <point x="310" y="1317"/>
      <point x="276" y="1281"/>
      <point x="242" y="1247" type="curve" smooth="yes"/>
      <point x="236" y="1242"/>
      <point x="229" y="1236"/>
      <point x="224" y="1236" type="curve" smooth="yes"/>
      <point x="221" y="1236"/>
      <point x="217" y="1238"/>
      <point x="212" y="1242" type="curve" smooth="yes"/>
      <point x="163" y="1281"/>
      <point x="137" y="1303"/>
    </contour>
  </outline>
</glyph>
<glyph name="uni05A7" format="1">
  <advance width="0"/>
  <unicode hex="05A7"/>
  <outline>
    <contour>
      <point x="509" y="-464" type="curve" smooth="yes"/>
      <point x="509" y="-541"/>
      <point x="432" y="-586"/>
      <point x="373" y="-586" type="curve" smooth="yes"/>
      <point x="330" y="-586"/>
      <point x="294" y="-581"/>
      <point x="249" y="-536" type="curve" smooth="yes"/>
      <point x="240" y="-527"/>
      <point x="233" y="-516"/>
      <point x="233" y="-508" type="curve" smooth="yes"/>
      <point x="233" y="-501"/>
      <point x="235" y="-498"/>
      <point x="238" y="-494" type="curve" smooth="yes"/>
      <point x="270" y="-459" type="line" smooth="yes"/>
      <point x="276" y="-453"/>
      <point x="282" y="-450"/>
      <point x="287" y="-450" type="curve" smooth="yes"/>
      <point x="292" y="-450"/>
      <point x="299" y="-453"/>
      <point x="305" y="-457" type="curve" smooth="yes"/>
      <point x="332" y="-475"/>
      <point x="340" y="-493"/>
      <point x="371" y="-493" type="curve" smooth="yes"/>
      <point x="385" y="-493"/>
      <point x="403" y="-477"/>
      <point x="403" y="-460" type="curve" smooth="yes"/>
      <point x="403" y="-438"/>
      <point x="390" y="-434"/>
      <point x="362" y="-414" type="curve" smooth="yes"/>
      <point x="332" y="-393"/>
      <point x="313" y="-383"/>
      <point x="284" y="-359" type="curve" smooth="yes"/>
      <point x="253" y="-333"/>
      <point x="235" y="-301"/>
      <point x="235" y="-253" type="curve" smooth="yes"/>
      <point x="235" y="-172"/>
      <point x="294" y="-116"/>
      <point x="371" y="-116" type="curve" smooth="yes"/>
      <point x="424" y="-116"/>
      <point x="462" y="-135"/>
      <point x="500" y="-176" type="curve" smooth="yes"/>
      <point x="508" y="-183"/>
      <point x="511" y="-190"/>
      <point x="511" y="-199" type="curve" smooth="yes"/>
      <point x="511" y="-204"/>
      <point x="508" y="-212"/>
      <point x="503" y="-215" type="curve" smooth="yes"/>
      <point x="477" y="-244" type="line" smooth="yes"/>
      <point x="468" y="-253"/>
      <point x="462" y="-260"/>
      <point x="453" y="-260" type="curve" smooth="yes"/>
      <point x="450" y="-260"/>
      <point x="445" y="-258"/>
      <point x="439" y="-253" type="curve" smooth="yes"/>
      <point x="419" y="-238"/>
      <point x="407" y="-217"/>
      <point x="376" y="-217" type="curve" smooth="yes"/>
      <point x="359" y="-217"/>
      <point x="342" y="-235"/>
      <point x="342" y="-251" type="curve" smooth="yes"/>
      <point x="342" y="-272"/>
      <point x="353" y="-284"/>
      <point x="371" y="-296" type="curve" smooth="yes"/>
      <point x="398" y="-313"/>
      <point x="428" y="-335"/>
      <point x="457" y="-357" type="curve" smooth="yes"/>
      <point x="501" y="-389"/>
      <point x="509" y="-424"/>
    </contour>
  </outline>
</glyph>
<glyph name="hatafsegolhebrew" format="1">
  <advance width="0"/>
  <unicode hex="05B1"/>
  <outline>
    <contour>
      <point x="169" y="-190" type="curve" smooth="yes"/>
      <point x="169" y="-231"/>
      <point x="137" y="-263"/>
      <point x="97" y="-263" type="curve" smooth="yes"/>
      <point x="55" y="-263"/>
      <point x="24" y="-231"/>
      <point x="24" y="-190" type="curve" smooth="yes"/>
      <point x="24" y="-151"/>
      <point x="55" y="-118"/>
      <point x="97" y="-118" type="curve" smooth="yes"/>
      <point x="137" y="-118"/>
      <point x="169" y="-151"/>
    </contour>
    <contour>
      <point x="421" y="-190" type="curve" smooth="yes"/>
      <point x="421" y="-231"/>
      <point x="389" y="-263"/>
      <point x="347" y="-263" type="curve" smooth="yes"/>
      <point x="308" y="-263"/>
      <point x="274" y="-231"/>
      <point x="274" y="-190" type="curve" smooth="yes"/>
      <point x="274" y="-151"/>
      <point x="308" y="-118"/>
      <point x="347" y="-118" type="curve" smooth="yes"/>
      <point x="389" y="-118"/>
      <point x="421" y="-151"/>
    </contour>
    <contour>
      <point x="669" y="-190" type="curve" smooth="yes"/>
      <point x="669" y="-231"/>
      <point x="636" y="-263"/>
      <point x="595" y="-263" type="curve" smooth="yes"/>
      <point x="556" y="-263"/>
      <point x="523" y="-231"/>
      <point x="523" y="-190" type="curve" smooth="yes"/>
      <point x="523" y="-151"/>
      <point x="556" y="-118"/>
      <point x="595" y="-118" type="curve" smooth="yes"/>
      <point x="636" y="-118"/>
      <point x="669" y="-151"/>
    </contour>
    <contour>
      <point x="669" y="-412" type="curve" smooth="yes"/>
      <point x="669" y="-453"/>
      <point x="636" y="-486"/>
      <point x="595" y="-486" type="curve" smooth="yes"/>
      <point x="556" y="-486"/>
      <point x="523" y="-453"/>
      <point x="523" y="-412" type="curve" smooth="yes"/>
      <point x="523" y="-373"/>
      <point x="556" y="-340"/>
      <point x="595" y="-340" type="curve" smooth="yes"/>
      <point x="636" y="-340"/>
      <point x="669" y="-373"/>
    </contour>
    <contour>
      <point x="294" y="-412" type="curve" smooth="yes"/>
      <point x="294" y="-453"/>
      <point x="260" y="-486"/>
      <point x="221" y="-486" type="curve" smooth="yes"/>
      <point x="179" y="-486"/>
      <point x="147" y="-453"/>
      <point x="147" y="-412" type="curve" smooth="yes"/>
      <point x="147" y="-373"/>
      <point x="179" y="-339"/>
      <point x="221" y="-339" type="curve" smooth="yes"/>
      <point x="260" y="-339"/>
      <point x="294" y="-373"/>
    </contour>
  </outline>
</glyph>
<glyph name="patahhebrew" format="1">
  <advance width="0"/>
  <unicode hex="05B7"/>
  <outline>
    <contour>
      <point x="102" y="-169" type="line"/>
      <point x="102" y="-154"/>
      <point x="109" y="-140"/>
      <point x="131" y="-138" type="curve" smooth="yes"/>
      <point x="200" y="-135"/>
      <point x="364" y="-131"/>
      <point x="364" y="-131" type="curve" smooth="yes"/>
      <point x="364" y="-131"/>
      <point x="518" y="-135"/>
      <point x="600" y="-138" type="curve" smooth="yes"/>
      <point x="622" y="-140"/>
      <point x="629" y="-154"/>
      <point x="629" y="-169" type="curve" smooth="yes"/>
      <point x="629" y="-215" type="line" smooth="yes"/>
      <point x="629" y="-229"/>
      <point x="620" y="-244"/>
      <point x="600" y="-244" type="curve" smooth="yes"/>
      <point x="590" y="-244"/>
      <point x="436" y="-251"/>
      <point x="366" y="-251" type="curve" smooth="yes"/>
      <point x="296" y="-251"/>
      <point x="158" y="-244"/>
      <point x="131" y="-244" type="curve" smooth="yes"/>
      <point x="113" y="-244"/>
      <point x="102" y="-231"/>
      <point x="102" y="-215" type="curve" smooth="yes"/>
    </contour>
  </outline>
</glyph>
<glyph name="afii57645" format="1">
  <advance width="725"/>
  <unicode hex="05BE"/>
  <outline>
    <contour>
      <point x="165" y="975" type="curve" smooth="yes"/>
      <point x="181" y="989"/>
      <point x="195" y="989"/>
      <point x="208" y="989" type="curve" smooth="yes"/>
      <point x="629" y="989" type="line" smooth="yes"/>
      <point x="648" y="989"/>
      <point x="656" y="984"/>
      <point x="656" y="973" type="curve" smooth="yes"/>
      <point x="656" y="966"/>
      <point x="650" y="954"/>
      <point x="643" y="942" type="curve" smooth="yes"/>
      <point x="614" y="900"/>
      <point x="592" y="865"/>
      <point x="563" y="833" type="curve" smooth="yes"/>
      <point x="550" y="819"/>
      <point x="539" y="819"/>
      <point x="520" y="819" type="curve" smooth="yes"/>
      <point x="97" y="819" type="line" smooth="yes"/>
      <point x="77" y="819"/>
      <point x="70" y="826"/>
      <point x="70" y="835" type="curve" smooth="yes"/>
      <point x="70" y="841"/>
      <point x="72" y="846"/>
      <point x="74" y="850" type="curve" smooth="yes"/>
      <point x="102" y="896"/>
      <point x="145" y="956"/>
    </contour>
  </outline>
</glyph>
<glyph name="afii57658" format="1">
  <advance width="696"/>
  <unicode hex="05C3"/>
  <outline>
    <contour>
      <point x="200" y="496" type="curve" smooth="yes"/>
      <point x="197" y="500"/>
      <point x="197" y="506"/>
      <point x="197" y="509" type="curve" smooth="yes"/>
      <point x="197" y="516"/>
      <point x="199" y="522"/>
      <point x="202" y="525" type="curve" smooth="yes"/>
      <point x="228" y="550"/>
      <point x="284" y="606"/>
      <point x="299" y="631" type="curve" smooth="yes"/>
      <point x="303" y="634"/>
      <point x="306" y="638"/>
      <point x="312" y="638" type="curve" smooth="yes"/>
      <point x="315" y="638"/>
      <point x="319" y="638"/>
      <point x="321" y="634" type="curve" smooth="yes"/>
      <point x="349" y="600"/>
      <point x="403" y="554"/>
      <point x="434" y="532" type="curve" smooth="yes"/>
      <point x="443" y="527"/>
      <point x="445" y="520"/>
      <point x="445" y="515" type="curve" smooth="yes"/>
      <point x="445" y="509"/>
      <point x="443" y="506"/>
      <point x="441" y="501" type="curve" smooth="yes"/>
      <point x="426" y="479"/>
      <point x="362" y="410"/>
      <point x="342" y="390" type="curve" smooth="yes"/>
      <point x="339" y="387"/>
      <point x="335" y="385"/>
      <point x="332" y="385" type="curve" smooth="yes"/>
      <point x="328" y="385"/>
      <point x="325" y="387"/>
      <point x="321" y="389" type="curve" smooth="yes"/>
      <point x="279" y="416"/>
      <point x="215" y="477"/>
    </contour>
    <contour>
      <point x="200" y="67" type="curve" smooth="yes"/>
      <point x="197" y="70"/>
      <point x="197" y="75"/>
      <point x="197" y="79" type="curve" smooth="yes"/>
      <point x="197" y="86"/>
      <point x="199" y="91"/>
      <point x="202" y="95" type="curve" smooth="yes"/>
      <point x="228" y="120"/>
      <point x="284" y="176"/>
      <point x="299" y="200" type="curve" smooth="yes"/>
      <point x="303" y="204"/>
      <point x="305" y="208"/>
      <point x="310" y="208" type="curve" smooth="yes"/>
      <point x="313" y="208"/>
      <point x="319" y="207"/>
      <point x="321" y="202" type="curve" smooth="yes"/>
      <point x="349" y="169"/>
      <point x="403" y="122"/>
      <point x="434" y="101" type="curve" smooth="yes"/>
      <point x="443" y="95"/>
      <point x="445" y="89"/>
      <point x="445" y="84" type="curve" smooth="yes"/>
      <point x="445" y="79"/>
      <point x="441" y="75"/>
      <point x="439" y="72" type="curve" smooth="yes"/>
      <point x="424" y="48"/>
      <point x="362" y="-20"/>
      <point x="342" y="-39" type="curve" smooth="yes"/>
      <point x="339" y="-43"/>
      <point x="333" y="-45"/>
      <point x="330" y="-45" type="curve" smooth="yes"/>
      <point x="326" y="-45"/>
      <point x="325" y="-43"/>
      <point x="321" y="-41" type="curve" smooth="yes"/>
      <point x="279" y="-14"/>
      <point x="215" y="46"/>
    </contour>
  </outline>
</glyph>
<glyph name="alefhebrew" format="1">
  <advance width="1301"/>
  <unicode hex="05D0"/>
  <outline>
    <contour>
      <point x="193" y="125" type="curve" smooth="yes"/>
      <point x="192" y="178"/>
      <point x="188" y="222"/>
      <point x="188" y="267" type="curve" smooth="yes"/>
      <point x="188" y="313"/>
      <point x="193" y="375"/>
      <point x="214" y="434" type="curve" smooth="yes"/>
      <point x="231" y="491"/>
      <point x="267" y="583"/>
      <point x="349" y="697" type="curve" smooth="yes"/>
      <point x="355" y="704"/>
      <point x="361" y="713"/>
      <point x="361" y="720" type="curve" smooth="yes"/>
      <point x="361" y="725"/>
      <point x="355" y="733"/>
      <point x="351" y="737" type="curve" smooth="yes"/>
      <point x="287" y="794"/>
      <point x="188" y="864"/>
      <point x="123" y="918" type="curve" smooth="yes"/>
      <point x="120" y="920"/>
      <point x="116" y="927"/>
      <point x="116" y="932" type="curve" smooth="yes"/>
      <point x="116" y="935"/>
      <point x="120" y="942"/>
      <point x="122" y="948" type="curve" smooth="yes"/>
      <point x="129" y="968"/>
      <point x="156" y="1025"/>
      <point x="188" y="1070" type="curve" smooth="yes"/>
      <point x="192" y="1075"/>
      <point x="197" y="1081"/>
      <point x="204" y="1081" type="curve" smooth="yes"/>
      <point x="207" y="1081"/>
      <point x="212" y="1079"/>
      <point x="214" y="1077" type="curve" smooth="yes"/>
      <point x="364" y="968"/>
      <point x="503" y="850"/>
      <point x="641" y="722" type="curve" smooth="yes"/>
      <point x="803" y="571"/>
      <point x="862" y="509"/>
      <point x="862" y="509" type="curve" smooth="yes"/>
      <point x="865" y="508"/>
      <point x="869" y="503"/>
      <point x="874" y="503" type="curve" smooth="yes"/>
      <point x="879" y="503"/>
      <point x="882" y="506"/>
      <point x="886" y="511" type="curve" smooth="yes"/>
      <point x="927" y="568"/>
      <point x="944" y="676"/>
      <point x="944" y="744" type="curve" smooth="yes"/>
      <point x="944" y="788"/>
      <point x="935" y="846"/>
      <point x="905" y="903" type="curve" smooth="yes"/>
      <point x="901" y="910"/>
      <point x="898" y="916"/>
      <point x="898" y="923" type="curve" smooth="yes"/>
      <point x="898" y="928"/>
      <point x="900" y="935"/>
      <point x="903" y="941" type="curve" smooth="yes"/>
      <point x="925" y="973"/>
      <point x="991" y="1045"/>
      <point x="1018" y="1072" type="curve" smooth="yes"/>
      <point x="1023" y="1077"/>
      <point x="1025" y="1081"/>
      <point x="1034" y="1081" type="curve" smooth="yes"/>
      <point x="1038" y="1081"/>
      <point x="1041" y="1077"/>
      <point x="1043" y="1075" type="curve" smooth="yes"/>
      <point x="1075" y="1033"/>
      <point x="1113" y="963"/>
      <point x="1113" y="867" type="curve" smooth="yes"/>
      <point x="1113" y="788"/>
      <point x="1089" y="725"/>
      <point x="1072" y="679" type="curve" smooth="yes"/>
      <point x="1048" y="617"/>
      <point x="995" y="523"/>
      <point x="954" y="462" type="curve" smooth="yes"/>
      <point x="944" y="448"/>
      <point x="942" y="438"/>
      <point x="942" y="438" type="curve" smooth="yes"/>
      <point x="942" y="432"/>
      <point x="946" y="424"/>
      <point x="949" y="421" type="curve" smooth="yes"/>
      <point x="1000" y="368"/>
      <point x="1197" y="154"/>
      <point x="1211" y="133" type="curve" smooth="yes"/>
      <point x="1215" y="127"/>
      <point x="1217" y="122"/>
      <point x="1217" y="116" type="curve" smooth="yes"/>
      <point x="1217" y="113"/>
      <point x="1217" y="108"/>
      <point x="1215" y="102" type="curve" smooth="yes"/>
      <point x="1204" y="70"/>
      <point x="1168" y="-9"/>
      <point x="1156" y="-34" type="curve" smooth="yes"/>
      <point x="1152" y="-41"/>
      <point x="1147" y="-46"/>
      <point x="1142" y="-46" type="curve" smooth="yes"/>
      <point x="1136" y="-46"/>
      <point x="1132" y="-43"/>
      <point x="1127" y="-38" type="curve" smooth="yes"/>
      <point x="1047" y="65"/>
      <point x="946" y="179"/>
      <point x="896" y="231" type="curve" smooth="yes"/>
      <point x="853" y="276"/>
      <point x="785" y="353"/>
      <point x="710" y="424" type="curve" smooth="yes"/>
      <point x="629" y="503"/>
      <point x="537" y="577"/>
      <point x="455" y="655" type="curve" smooth="yes"/>
      <point x="448" y="662"/>
      <point x="436" y="662"/>
      <point x="436" y="662" type="curve" smooth="yes"/>
      <point x="431" y="662"/>
      <point x="421" y="656"/>
      <point x="417" y="648" type="curve" smooth="yes"/>
      <point x="346" y="503"/>
      <point x="321" y="403"/>
      <point x="321" y="306" type="curve" smooth="yes"/>
      <point x="321" y="262"/>
      <point x="326" y="222"/>
      <point x="353" y="192" type="curve" smooth="yes"/>
      <point x="368" y="172"/>
      <point x="385" y="171"/>
      <point x="412" y="171" type="curve" smooth="yes"/>
      <point x="453" y="171" type="line" smooth="yes"/>
      <point x="468" y="171"/>
      <point x="477" y="169"/>
      <point x="477" y="158" type="curve" smooth="yes"/>
      <point x="477" y="135"/>
      <point x="417" y="34"/>
      <point x="405" y="18" type="curve" smooth="yes"/>
      <point x="396" y="7"/>
      <point x="387" y="0"/>
      <point x="371" y="0" type="curve" smooth="yes"/>
      <point x="165" y="0" type="line" smooth="yes"/>
      <point x="154" y="0"/>
      <point x="152" y="5"/>
      <point x="152" y="11" type="curve" smooth="yes"/>
      <point x="152" y="14"/>
      <point x="152" y="18"/>
      <point x="154" y="20" type="curve" smooth="yes"/>
      <point x="172" y="50"/>
      <point x="193" y="97"/>
    </contour>
  </outline>
</glyph>
<glyph name="bethebrew" format="1">
  <advance width="1016"/>
  <unicode hex="05D1"/>
  <outline>
    <contour>
      <point x="75" y="27" type="curve" smooth="yes"/>
      <point x="93" y="60"/>
      <point x="135" y="122"/>
      <point x="152" y="147" type="curve" smooth="yes"/>
      <point x="163" y="161"/>
      <point x="176" y="169"/>
      <point x="186" y="169" type="curve" smooth="yes"/>
      <point x="656" y="169" type="line" smooth="yes"/>
      <point x="677" y="169"/>
      <point x="679" y="190"/>
      <point x="679" y="204" type="curve" smooth="yes"/>
      <point x="679" y="292"/>
      <point x="667" y="677"/>
      <point x="663" y="711" type="curve" smooth="yes"/>
      <point x="658" y="771"/>
      <point x="607" y="819"/>
      <point x="554" y="819" type="curve" smooth="yes"/>
      <point x="116" y="819" type="line" smooth="yes"/>
      <point x="86" y="819"/>
      <point x="72" y="831"/>
      <point x="72" y="857" type="curve" smooth="yes"/>
      <point x="72" y="872"/>
      <point x="101" y="923"/>
      <point x="129" y="963" type="curve" smooth="yes"/>
      <point x="163" y="1009"/>
      <point x="179" y="1031"/>
      <point x="215" y="1070" type="curve" smooth="yes"/>
      <point x="226" y="1081"/>
      <point x="231" y="1081"/>
      <point x="231" y="1081" type="curve" smooth="yes"/>
      <point x="242" y="1081"/>
      <point x="248" y="1079"/>
      <point x="251" y="1065" type="curve" smooth="yes"/>
      <point x="258" y="1029"/>
      <point x="270" y="989"/>
      <point x="312" y="989" type="curve" smooth="yes"/>
      <point x="590" y="989" type="line" smooth="yes"/>
      <point x="662" y="989"/>
      <point x="722" y="954"/>
      <point x="754" y="908" type="curve" smooth="yes"/>
      <point x="785" y="865"/>
      <point x="795" y="783"/>
      <point x="797" y="725" type="curve" smooth="yes"/>
      <point x="803" y="570"/>
      <point x="799" y="431"/>
      <point x="807" y="282" type="curve" smooth="yes"/>
      <point x="809" y="246"/>
      <point x="810" y="207"/>
      <point x="831" y="183" type="curve" smooth="yes"/>
      <point x="844" y="171"/>
      <point x="872" y="169"/>
      <point x="930" y="169" type="curve" smooth="yes"/>
      <point x="937" y="169"/>
      <point x="948" y="163"/>
      <point x="948" y="151" type="curve" smooth="yes"/>
      <point x="948" y="147"/>
      <point x="946" y="142"/>
      <point x="944" y="137" type="curve" smooth="yes"/>
      <point x="934" y="115"/>
      <point x="882" y="34"/>
      <point x="864" y="16" type="curve" smooth="yes"/>
      <point x="851" y="4"/>
      <point x="844" y="0"/>
      <point x="816" y="0" type="curve" smooth="yes"/>
      <point x="99" y="0" type="line" smooth="yes"/>
      <point x="82" y="0"/>
      <point x="72" y="5"/>
      <point x="72" y="16" type="curve" smooth="yes"/>
      <point x="72" y="20"/>
      <point x="74" y="24"/>
    </contour>
  </outline>
</glyph>
<glyph name="hethebrew" format="1">
  <advance width="1301"/>
  <unicode hex="05D7"/>
  <outline>
    <contour>
      <point x="238" y="-36" type="curve" smooth="yes"/>
      <point x="224" y="369"/>
      <point x="214" y="662"/>
      <point x="159" y="828" type="curve" smooth="yes"/>
      <point x="156" y="837"/>
      <point x="154" y="848"/>
      <point x="154" y="855" type="curve" smooth="yes"/>
      <point x="154" y="869"/>
      <point x="159" y="880"/>
      <point x="163" y="889" type="curve" smooth="yes"/>
      <point x="174" y="908"/>
      <point x="260" y="1040"/>
      <point x="287" y="1070" type="curve" smooth="yes"/>
      <point x="292" y="1075"/>
      <point x="303" y="1081"/>
      <point x="310" y="1081" type="curve" smooth="yes"/>
      <point x="319" y="1081"/>
      <point x="332" y="1075"/>
      <point x="337" y="1061" type="curve" smooth="yes"/>
      <point x="342" y="1047"/>
      <point x="346" y="1009"/>
      <point x="361" y="1002" type="curve" smooth="yes"/>
      <point x="375" y="993"/>
      <point x="407" y="989"/>
      <point x="432" y="989" type="curve"/>
      <point x="735" y="989" type="line"/>
      <point x="894" y="989"/>
      <point x="1023" y="880"/>
      <point x="1088" y="746" type="curve" smooth="yes"/>
      <point x="1147" y="622"/>
      <point x="1159" y="457"/>
      <point x="1159" y="299" type="curve" smooth="yes"/>
      <point x="1159" y="240"/>
      <point x="1158" y="185"/>
      <point x="1156" y="131" type="curve" smooth="yes"/>
      <point x="1154" y="91"/>
      <point x="1151" y="79"/>
      <point x="1142" y="63" type="curve" smooth="yes"/>
      <point x="1125" y="32"/>
      <point x="1088" y="-24"/>
      <point x="1074" y="-39" type="curve" smooth="yes"/>
      <point x="1070" y="-43"/>
      <point x="1065" y="-46"/>
      <point x="1061" y="-46" type="curve" smooth="yes"/>
      <point x="1045" y="-46"/>
      <point x="1045" y="-20"/>
      <point x="1045" y="-9" type="curve" smooth="yes"/>
      <point x="1038" y="147"/>
      <point x="1018" y="536"/>
      <point x="951" y="650" type="curve" smooth="yes"/>
      <point x="920" y="706"/>
      <point x="826" y="819"/>
      <point x="684" y="819" type="curve"/>
      <point x="390" y="819" type="line" smooth="yes"/>
      <point x="359" y="819"/>
      <point x="347" y="797"/>
      <point x="347" y="769" type="curve" smooth="yes"/>
      <point x="347" y="761"/>
      <point x="366" y="513"/>
      <point x="366" y="385" type="curve" smooth="yes"/>
      <point x="366" y="296"/>
      <point x="364" y="224"/>
      <point x="359" y="152" type="curve" smooth="yes"/>
      <point x="357" y="127"/>
      <point x="353" y="111"/>
      <point x="346" y="97" type="curve" smooth="yes"/>
      <point x="325" y="52"/>
      <point x="303" y="7"/>
      <point x="262" y="-39" type="curve" smooth="yes"/>
      <point x="255" y="-46"/>
      <point x="251" y="-46"/>
      <point x="248" y="-46" type="curve" smooth="yes"/>
      <point x="242" y="-46"/>
      <point x="238" y="-41"/>
    </contour>
  </outline>
</glyph>
<glyph name="finalmemhebrew" format="1">
  <advance width="1301"/>
  <unicode hex="05DD"/>
  <outline>
    <contour>
      <point x="161" y="774" type="line"/>
      <point x="159" y="814"/>
      <point x="123" y="817"/>
      <point x="101" y="826" type="curve" smooth="yes"/>
      <point x="91" y="830"/>
      <point x="82" y="837"/>
      <point x="82" y="848" type="curve" smooth="yes"/>
      <point x="82" y="857"/>
      <point x="86" y="865"/>
      <point x="91" y="872" type="curve" smooth="yes"/>
      <point x="133" y="930"/>
      <point x="221" y="1038"/>
      <point x="246" y="1065" type="curve" smooth="yes"/>
      <point x="255" y="1075"/>
      <point x="265" y="1081"/>
      <point x="274" y="1081" type="curve" smooth="yes"/>
      <point x="287" y="1081"/>
      <point x="298" y="1072"/>
      <point x="301" y="1057" type="curve" smooth="yes"/>
      <point x="310" y="1005"/>
      <point x="323" y="989"/>
      <point x="359" y="989" type="curve" smooth="yes"/>
      <point x="882" y="989" type="line" smooth="yes"/>
      <point x="982" y="989"/>
      <point x="1041" y="977"/>
      <point x="1098" y="910" type="curve" smooth="yes"/>
      <point x="1138" y="862"/>
      <point x="1145" y="826"/>
      <point x="1152" y="773" type="curve" smooth="yes"/>
      <point x="1161" y="696"/>
      <point x="1166" y="511"/>
      <point x="1166" y="417" type="curve" smooth="yes"/>
      <point x="1166" y="285"/>
      <point x="1158" y="238"/>
      <point x="1151" y="215" type="curve" smooth="yes"/>
      <point x="1127" y="149"/>
      <point x="1068" y="43"/>
      <point x="1045" y="14" type="curve" smooth="yes"/>
      <point x="1034" y="2"/>
      <point x="1023" y="-2"/>
      <point x="997" y="-2" type="curve" smooth="yes"/>
      <point x="347" y="-2" type="line"/>
      <point x="258" y="-2"/>
      <point x="190" y="68"/>
      <point x="183" y="186" type="curve" smooth="yes"/>
      <point x="179" y="251"/>
      <point x="174" y="353"/>
      <point x="171" y="470" type="curve" smooth="yes"/>
    </contour>
    <contour>
      <point x="1002" y="169" type="line"/>
      <point x="1033" y="169"/>
      <point x="1038" y="176"/>
      <point x="1038" y="208" type="curve" smooth="yes"/>
      <point x="1038" y="347"/>
      <point x="1038" y="581"/>
      <point x="1011" y="704" type="curve" smooth="yes"/>
      <point x="1004" y="737"/>
      <point x="993" y="754"/>
      <point x="966" y="780" type="curve" smooth="yes"/>
      <point x="948" y="797"/>
      <point x="903" y="821"/>
      <point x="831" y="821" type="curve" smooth="yes"/>
      <point x="373" y="821" type="line" smooth="yes"/>
      <point x="321" y="821"/>
      <point x="305" y="817"/>
      <point x="303" y="788" type="curve" smooth="yes"/>
      <point x="301" y="769"/>
      <point x="301" y="735"/>
      <point x="301" y="694" type="curve" smooth="yes"/>
      <point x="301" y="547"/>
      <point x="306" y="308"/>
      <point x="312" y="258" type="curve" smooth="yes"/>
      <point x="319" y="186"/>
      <point x="361" y="169"/>
      <point x="409" y="169" type="curve"/>
    </contour>
  </outline>
</glyph>
<glyph name="samekhhebrew" format="1">
  <advance width="1301"/>
  <unicode hex="05E1"/>
  <outline>
    <contour>
      <point x="224" y="696" type="curve" smooth="yes"/>
      <point x="204" y="767"/>
      <point x="186" y="795"/>
      <point x="166" y="805" type="curve" smooth="yes"/>
      <point x="154" y="810"/>
      <point x="137" y="816"/>
      <point x="113" y="821" type="curve" smooth="yes"/>
      <point x="106" y="823"/>
      <point x="95" y="830"/>
      <point x="95" y="843" type="curve" smooth="yes"/>
      <point x="95" y="848"/>
      <point x="99" y="855"/>
      <point x="102" y="860" type="curve" smooth="yes"/>
      <point x="138" y="920"/>
      <point x="233" y="1047"/>
      <point x="272" y="1074" type="curve" smooth="yes"/>
      <point x="277" y="1077"/>
      <point x="287" y="1081"/>
      <point x="294" y="1081" type="curve" smooth="yes"/>
      <point x="301" y="1081"/>
      <point x="310" y="1075"/>
      <point x="313" y="1062" type="curve" smooth="yes"/>
      <point x="321" y="1040"/>
      <point x="323" y="1012"/>
      <point x="333" y="1002" type="curve" smooth="yes"/>
      <point x="346" y="989"/>
      <point x="375" y="989"/>
      <point x="387" y="989" type="curve"/>
      <point x="1007" y="989" type="line"/>
      <point x="1154" y="989"/>
      <point x="1188" y="910"/>
      <point x="1188" y="763" type="curve" smooth="yes"/>
      <point x="1188" y="501"/>
      <point x="1016" y="222"/>
      <point x="810" y="72" type="curve" smooth="yes"/>
      <point x="720" y="5"/>
      <point x="604" y="-24"/>
      <point x="532" y="-24" type="curve" smooth="yes"/>
      <point x="431" y="-24"/>
      <point x="396" y="48"/>
      <point x="368" y="133" type="curve" smooth="yes"/>
      <point x="310" y="301"/>
      <point x="270" y="508"/>
    </contour>
    <contour>
      <point x="586" y="149" type="curve" smooth="yes"/>
      <point x="697" y="149"/>
      <point x="787" y="188"/>
      <point x="855" y="240" type="curve" smooth="yes"/>
      <point x="1004" y="359"/>
      <point x="1038" y="500"/>
      <point x="1038" y="683" type="curve" smooth="yes"/>
      <point x="1038" y="785"/>
      <point x="1005" y="819"/>
      <point x="912" y="819" type="curve"/>
      <point x="371" y="819" type="line"/>
      <point x="359" y="819"/>
      <point x="357" y="809"/>
      <point x="357" y="801" type="curve" smooth="yes"/>
      <point x="357" y="795"/>
      <point x="434" y="355"/>
      <point x="489" y="219" type="curve" smooth="yes"/>
      <point x="513" y="163"/>
      <point x="550" y="149"/>
    </contour>
  </outline>
</glyph>
<glyph name="ayinhebrew" format="1">
  <advance width="1016"/>
  <unicode hex="05E2"/>
  <outline>
    <contour>
      <point x="174" y="46" type="curve" smooth="yes"/>
      <point x="207" y="61"/>
      <point x="344" y="125"/>
      <point x="378" y="147" type="curve" smooth="yes"/>
      <point x="387" y="152"/>
      <point x="395" y="159"/>
      <point x="395" y="171" type="curve" smooth="yes"/>
      <point x="395" y="174"/>
      <point x="387" y="200"/>
      <point x="385" y="204" type="curve" smooth="yes"/>
      <point x="310" y="453"/>
      <point x="267" y="640"/>
      <point x="116" y="898" type="curve" smooth="yes"/>
      <point x="106" y="916"/>
      <point x="101" y="928"/>
      <point x="101" y="934" type="curve" smooth="yes"/>
      <point x="101" y="941"/>
      <point x="108" y="949"/>
      <point x="115" y="959" type="curve" smooth="yes"/>
      <point x="135" y="984"/>
      <point x="202" y="1065"/>
      <point x="215" y="1074" type="curve" smooth="yes"/>
      <point x="221" y="1077"/>
      <point x="226" y="1081"/>
      <point x="233" y="1081" type="curve" smooth="yes"/>
      <point x="238" y="1081"/>
      <point x="246" y="1079"/>
      <point x="249" y="1070" type="curve" smooth="yes"/>
      <point x="373" y="809"/>
      <point x="431" y="525"/>
      <point x="511" y="233" type="curve" smooth="yes"/>
      <point x="513" y="224"/>
      <point x="518" y="221"/>
      <point x="523" y="221" type="curve" smooth="yes"/>
      <point x="527" y="221"/>
      <point x="541" y="226"/>
      <point x="543" y="228" type="curve" smooth="yes"/>
      <point x="629" y="282"/>
      <point x="717" y="337"/>
      <point x="737" y="359" type="curve" smooth="yes"/>
      <point x="763" y="387"/>
      <point x="769" y="421"/>
      <point x="769" y="482" type="curve" smooth="yes"/>
      <point x="769" y="602"/>
      <point x="747" y="727"/>
      <point x="715" y="844" type="curve" smooth="yes"/>
      <point x="701" y="894"/>
      <point x="696" y="918"/>
      <point x="696" y="932" type="curve" smooth="yes"/>
      <point x="696" y="942"/>
      <point x="699" y="949"/>
      <point x="704" y="957" type="curve" smooth="yes"/>
      <point x="732" y="993"/>
      <point x="792" y="1059"/>
      <point x="809" y="1074" type="curve" smooth="yes"/>
      <point x="814" y="1077"/>
      <point x="819" y="1081"/>
      <point x="824" y="1081" type="curve" smooth="yes"/>
      <point x="831" y="1081"/>
      <point x="841" y="1075"/>
      <point x="844" y="1061" type="curve" smooth="yes"/>
      <point x="884" y="916"/>
      <point x="896" y="753"/>
      <point x="896" y="627" type="curve" smooth="yes"/>
      <point x="896" y="537"/>
      <point x="880" y="489"/>
      <point x="853" y="407" type="curve" smooth="yes"/>
      <point x="830" y="335"/>
      <point x="776" y="242"/>
      <point x="674" y="165" type="curve" smooth="yes"/>
      <point x="550" y="72"/>
      <point x="306" y="-65"/>
      <point x="108" y="-151" type="curve" smooth="yes"/>
      <point x="95" y="-156"/>
      <point x="86" y="-159"/>
      <point x="81" y="-159" type="curve" smooth="yes"/>
      <point x="72" y="-159"/>
      <point x="65" y="-152"/>
      <point x="65" y="-142" type="curve" smooth="yes"/>
      <point x="65" y="-120"/>
      <point x="122" y="-11"/>
      <point x="137" y="14" type="curve" smooth="yes"/>
      <point x="145" y="31"/>
      <point x="158" y="39"/>
    </contour>
  </outline>
</glyph>
<glyph name="finalpehebrew" format="1">
  <advance width="1016"/>
  <unicode hex="05E3"/>
  <outline>
    <contour>
      <point x="703" y="588" type="curve" smooth="yes"/>
      <point x="694" y="658"/>
      <point x="669" y="715"/>
      <point x="607" y="761" type="curve" smooth="yes"/>
      <point x="559" y="799"/>
      <point x="468" y="843"/>
      <point x="306" y="898" type="curve" smooth="yes"/>
      <point x="305" y="900"/>
      <point x="301" y="900"/>
      <point x="299" y="900" type="curve" smooth="yes"/>
      <point x="296" y="900"/>
      <point x="289" y="898"/>
      <point x="285" y="893" type="curve" smooth="yes"/>
      <point x="246" y="848"/>
      <point x="221" y="790"/>
      <point x="221" y="718" type="curve" smooth="yes"/>
      <point x="221" y="590"/>
      <point x="298" y="557"/>
      <point x="387" y="518" type="curve" smooth="yes"/>
      <point x="398" y="513"/>
      <point x="405" y="508"/>
      <point x="405" y="500" type="curve" smooth="yes"/>
      <point x="405" y="494"/>
      <point x="402" y="486"/>
      <point x="395" y="475" type="curve" smooth="yes"/>
      <point x="375" y="445"/>
      <point x="340" y="393"/>
      <point x="317" y="371" type="curve" smooth="yes"/>
      <point x="312" y="366"/>
      <point x="308" y="364"/>
      <point x="303" y="364" type="curve" smooth="yes"/>
      <point x="298" y="364"/>
      <point x="291" y="368"/>
      <point x="277" y="373" type="curve" smooth="yes"/>
      <point x="149" y="428"/>
      <point x="79" y="518"/>
      <point x="79" y="658" type="curve" smooth="yes"/>
      <point x="79" y="812"/>
      <point x="219" y="978"/>
      <point x="333" y="1074" type="curve" smooth="yes"/>
      <point x="339" y="1077"/>
      <point x="344" y="1081"/>
      <point x="351" y="1081" type="curve" smooth="yes"/>
      <point x="355" y="1081"/>
      <point x="359" y="1079"/>
      <point x="364" y="1077" type="curve" smooth="yes"/>
      <point x="446" y="1048"/>
      <point x="631" y="982"/>
      <point x="697" y="934" type="curve" smooth="yes"/>
      <point x="797" y="857"/>
      <point x="835" y="781"/>
      <point x="844" y="650" type="curve" smooth="yes"/>
      <point x="851" y="552"/>
      <point x="857" y="276"/>
      <point x="857" y="48" type="curve" smooth="yes"/>
      <point x="857" y="-75"/>
      <point x="855" y="-185"/>
      <point x="851" y="-244" type="curve" smooth="yes"/>
      <point x="850" y="-265"/>
      <point x="850" y="-274"/>
      <point x="846" y="-284" type="curve" smooth="yes"/>
      <point x="828" y="-321"/>
      <point x="790" y="-382"/>
      <point x="769" y="-403" type="curve" smooth="yes"/>
      <point x="763" y="-409"/>
      <point x="758" y="-412"/>
      <point x="754" y="-412" type="curve" smooth="yes"/>
      <point x="749" y="-412"/>
      <point x="747" y="-407"/>
      <point x="746" y="-400" type="curve" smooth="yes"/>
      <point x="730" y="-272"/>
      <point x="722" y="439"/>
    </contour>
  </outline>
</glyph>
<glyph name="finaltsadihebrew" format="1">
  <advance width="1019"/>
  <unicode hex="05E5"/>
  <outline>
    <contour>
      <point x="375" y="641" type="curve" smooth="yes"/>
      <point x="303" y="727"/>
      <point x="169" y="862"/>
      <point x="109" y="910" type="curve" smooth="yes"/>
      <point x="101" y="918"/>
      <point x="97" y="923"/>
      <point x="97" y="932" type="curve" smooth="yes"/>
      <point x="97" y="937"/>
      <point x="99" y="941"/>
      <point x="102" y="948" type="curve" smooth="yes"/>
      <point x="120" y="985"/>
      <point x="165" y="1054"/>
      <point x="185" y="1074" type="curve" smooth="yes"/>
      <point x="188" y="1077"/>
      <point x="193" y="1081"/>
      <point x="199" y="1081" type="curve" smooth="yes"/>
      <point x="204" y="1081"/>
      <point x="210" y="1077"/>
      <point x="215" y="1074" type="curve" smooth="yes"/>
      <point x="251" y="1047"/>
      <point x="371" y="923"/>
      <point x="423" y="858" type="curve" smooth="yes"/>
      <point x="511" y="747"/>
      <point x="590" y="631"/>
      <point x="636" y="550" type="curve" smooth="yes"/>
      <point x="641" y="541"/>
      <point x="647" y="536"/>
      <point x="652" y="536" type="curve" smooth="yes"/>
      <point x="658" y="536"/>
      <point x="663" y="541"/>
      <point x="669" y="547" type="curve" smooth="yes"/>
      <point x="697" y="583"/>
      <point x="713" y="688"/>
      <point x="713" y="758" type="curve" smooth="yes"/>
      <point x="713" y="790"/>
      <point x="710" y="841"/>
      <point x="692" y="889" type="curve" smooth="yes"/>
      <point x="690" y="894"/>
      <point x="688" y="901"/>
      <point x="688" y="907" type="curve" smooth="yes"/>
      <point x="688" y="912"/>
      <point x="690" y="916"/>
      <point x="694" y="923" type="curve" smooth="yes"/>
      <point x="710" y="949"/>
      <point x="780" y="1041"/>
      <point x="814" y="1070" type="curve" smooth="yes"/>
      <point x="819" y="1075"/>
      <point x="826" y="1081"/>
      <point x="831" y="1081" type="curve" smooth="yes"/>
      <point x="838" y="1081"/>
      <point x="846" y="1072"/>
      <point x="851" y="1061" type="curve" smooth="yes"/>
      <point x="880" y="993"/>
      <point x="896" y="925"/>
      <point x="896" y="857" type="curve" smooth="yes"/>
      <point x="896" y="690"/>
      <point x="812" y="575"/>
      <point x="706" y="459" type="curve" smooth="yes"/>
      <point x="703" y="455"/>
      <point x="701" y="450"/>
      <point x="701" y="445" type="curve" smooth="yes"/>
      <point x="701" y="439"/>
      <point x="703" y="434"/>
      <point x="704" y="431" type="curve" smooth="yes"/>
      <point x="837" y="186"/>
      <point x="880" y="4"/>
      <point x="928" y="-217" type="curve" smooth="yes"/>
      <point x="932" y="-233"/>
      <point x="932" y="-238"/>
      <point x="932" y="-246" type="curve" smooth="yes"/>
      <point x="932" y="-255"/>
      <point x="930" y="-263"/>
      <point x="927" y="-276" type="curve" smooth="yes"/>
      <point x="912" y="-323"/>
      <point x="905" y="-340"/>
      <point x="880" y="-393" type="curve" smooth="yes"/>
      <point x="872" y="-409"/>
      <point x="865" y="-414"/>
      <point x="858" y="-414" type="curve" smooth="yes"/>
      <point x="850" y="-414"/>
      <point x="844" y="-405"/>
      <point x="843" y="-398" type="curve" smooth="yes"/>
      <point x="760" y="-22"/>
      <point x="619" y="344"/>
    </contour>
  </outline>
</glyph>
<glyph name="quoteleft" format="1">
  <advance width="556"/>
  <unicode hex="2018"/>
  <outline>
    <contour>
      <point x="525" y="1061" type="curve" smooth="yes"/>
      <point x="500" y="991"/>
      <point x="453" y="876"/>
      <point x="439" y="801" type="curve" smooth="yes"/>
      <point x="428" y="740"/>
      <point x="424" y="686"/>
      <point x="424" y="655" type="curve" smooth="yes"/>
      <point x="424" y="636"/>
      <point x="417" y="626"/>
      <point x="409" y="613" type="curve" smooth="yes"/>
      <point x="383" y="579"/>
      <point x="301" y="501"/>
      <point x="251" y="472" type="curve" smooth="yes"/>
      <point x="238" y="464"/>
      <point x="224" y="457"/>
      <point x="208" y="457" type="curve" smooth="yes"/>
      <point x="190" y="459"/>
      <point x="163" y="516"/>
      <point x="163" y="593" type="curve" smooth="yes"/>
      <point x="163" y="690"/>
      <point x="190" y="774"/>
      <point x="267" y="907" type="curve" smooth="yes"/>
      <point x="313" y="985"/>
      <point x="390" y="1075"/>
      <point x="459" y="1124" type="curve" smooth="yes"/>
      <point x="480" y="1140"/>
      <point x="491" y="1145"/>
      <point x="520" y="1145" type="curve" smooth="yes"/>
      <point x="532" y="1145"/>
      <point x="543" y="1132"/>
      <point x="543" y="1120" type="curve" smooth="yes"/>
      <point x="543" y="1106"/>
      <point x="532" y="1081"/>
    </contour>
  </outline>
</glyph>
<glyph name="daggerdbl" format="1">
  <advance width="1045"/>
  <unicode hex="2021"/>
  <outline>
    <contour>
      <point x="860" y="380" type="curve" smooth="yes"/>
      <point x="871" y="380"/>
      <point x="872" y="383"/>
      <point x="872" y="389" type="curve" smooth="yes"/>
      <point x="872" y="393"/>
      <point x="871" y="400"/>
      <point x="867" y="409" type="curve" smooth="yes"/>
      <point x="817" y="545" type="line" smooth="yes"/>
      <point x="814" y="552"/>
      <point x="805" y="554"/>
      <point x="797" y="554" type="curve" smooth="yes"/>
      <point x="747" y="552"/>
      <point x="652" y="479"/>
      <point x="577" y="344" type="curve" smooth="yes"/>
      <point x="570" y="332"/>
      <point x="566" y="325"/>
      <point x="563" y="325" type="curve" smooth="yes"/>
      <point x="559" y="325"/>
      <point x="557" y="347"/>
      <point x="557" y="366" type="curve" smooth="yes"/>
      <point x="557" y="595"/>
      <point x="717" y="828"/>
      <point x="923" y="830" type="curve" smooth="yes"/>
      <point x="932" y="830"/>
      <point x="937" y="833"/>
      <point x="937" y="841" type="curve" smooth="yes"/>
      <point x="937" y="844"/>
      <point x="935" y="851"/>
      <point x="932" y="858" type="curve" smooth="yes"/>
      <point x="869" y="993" type="line"/>
      <point x="865" y="1000"/>
      <point x="862" y="1005"/>
      <point x="855" y="1005" type="curve" smooth="yes"/>
      <point x="781" y="1000"/>
      <point x="655" y="865"/>
      <point x="573" y="658" type="curve" smooth="yes"/>
      <point x="570" y="647"/>
      <point x="564" y="638"/>
      <point x="561" y="638" type="curve" smooth="yes"/>
      <point x="557" y="638"/>
      <point x="554" y="647"/>
      <point x="554" y="667" type="curve"/>
      <point x="554" y="760"/>
      <point x="604" y="1074"/>
      <point x="604" y="1199" type="curve" smooth="yes"/>
      <point x="604" y="1221"/>
      <point x="600" y="1226"/>
      <point x="595" y="1226" type="curve" smooth="yes"/>
      <point x="588" y="1226"/>
      <point x="581" y="1224"/>
      <point x="561" y="1213" type="curve" smooth="yes"/>
      <point x="529" y="1195"/>
      <point x="436" y="1134"/>
      <point x="436" y="1134" type="curve"/>
      <point x="423" y="1125"/>
      <point x="421" y="1117"/>
      <point x="421" y="1110" type="curve" smooth="yes"/>
      <point x="421" y="1041"/>
      <point x="487" y="760"/>
      <point x="487" y="667" type="curve" smooth="yes"/>
      <point x="487" y="647"/>
      <point x="484" y="638"/>
      <point x="480" y="638" type="curve" smooth="yes"/>
      <point x="477" y="638"/>
      <point x="472" y="647"/>
      <point x="468" y="658" type="curve" smooth="yes"/>
      <point x="398" y="865"/>
      <point x="260" y="1002"/>
      <point x="190" y="1005" type="curve" smooth="yes"/>
      <point x="179" y="1005"/>
      <point x="176" y="1002"/>
      <point x="172" y="995" type="curve" smooth="yes"/>
      <point x="115" y="867" type="line" smooth="yes"/>
      <point x="111" y="860"/>
      <point x="106" y="850"/>
      <point x="106" y="844" type="curve" smooth="yes"/>
      <point x="106" y="837"/>
      <point x="109" y="830"/>
      <point x="118" y="830" type="curve" smooth="yes"/>
      <point x="312" y="830"/>
      <point x="486" y="595"/>
      <point x="486" y="366" type="curve" smooth="yes"/>
      <point x="486" y="346"/>
      <point x="486" y="325"/>
      <point x="482" y="325" type="curve" smooth="yes"/>
      <point x="479" y="325"/>
      <point x="475" y="332"/>
      <point x="466" y="344" type="curve" smooth="yes"/>
      <point x="371" y="484"/>
      <point x="298" y="545"/>
      <point x="248" y="547" type="curve" smooth="yes"/>
      <point x="240" y="547"/>
      <point x="231" y="545"/>
      <point x="228" y="537" type="curve" smooth="yes"/>
      <point x="178" y="405" type="line" smooth="yes"/>
      <point x="174" y="396"/>
      <point x="172" y="389"/>
      <point x="172" y="387" type="curve" smooth="yes"/>
      <point x="172" y="383"/>
      <point x="176" y="380"/>
      <point x="181" y="380" type="curve" smooth="yes"/>
      <point x="333" y="380"/>
      <point x="486" y="308"/>
      <point x="486" y="138" type="curve" smooth="yes"/>
      <point x="486" y="32"/>
      <point x="448" y="-88"/>
      <point x="448" y="-99" type="curve" smooth="yes"/>
      <point x="448" y="-106"/>
      <point x="452" y="-118"/>
      <point x="453" y="-125" type="curve" smooth="yes"/>
      <point x="501" y="-291" type="line" smooth="yes"/>
      <point x="506" y="-303"/>
      <point x="511" y="-310"/>
      <point x="518" y="-310" type="curve" smooth="yes"/>
      <point x="527" y="-310"/>
      <point x="530" y="-305"/>
      <point x="536" y="-291" type="curve" smooth="yes"/>
      <point x="592" y="-125" type="line" smooth="yes"/>
      <point x="595" y="-116"/>
      <point x="595" y="-106"/>
      <point x="595" y="-99" type="curve" smooth="yes"/>
      <point x="595" y="-86"/>
      <point x="561" y="32"/>
      <point x="561" y="138" type="curve" smooth="yes"/>
      <point x="561" y="308"/>
      <point x="708" y="380"/>
    </contour>
  </outline>
</glyph>
<glyph name="ellipsis" format="1">
  <advance width="1652"/>
  <unicode hex="2026"/>
  <outline>
    <contour>
      <point x="711" y="61" type="curve" smooth="yes"/>
      <point x="706" y="68"/>
      <point x="703" y="77"/>
      <point x="703" y="82" type="curve" smooth="yes"/>
      <point x="703" y="88"/>
      <point x="704" y="93"/>
      <point x="708" y="97" type="curve" smooth="yes"/>
      <point x="742" y="131"/>
      <point x="778" y="172"/>
      <point x="795" y="199" type="curve" smooth="yes"/>
      <point x="801" y="207"/>
      <point x="807" y="208"/>
      <point x="812" y="208" type="curve" smooth="yes"/>
      <point x="819" y="208"/>
      <point x="823" y="204"/>
      <point x="828" y="200" type="curve" smooth="yes"/>
      <point x="850" y="186"/>
      <point x="914" y="118"/>
      <point x="932" y="108" type="curve" smooth="yes"/>
      <point x="939" y="102"/>
      <point x="946" y="95"/>
      <point x="946" y="86" type="curve" smooth="yes"/>
      <point x="946" y="79"/>
      <point x="942" y="75"/>
      <point x="937" y="65" type="curve" smooth="yes"/>
      <point x="927" y="43"/>
      <point x="869" y="-24"/>
      <point x="844" y="-39" type="curve" smooth="yes"/>
      <point x="841" y="-41"/>
      <point x="835" y="-43"/>
      <point x="831" y="-43" type="curve" smooth="yes"/>
      <point x="828" y="-43"/>
      <point x="823" y="-41"/>
      <point x="819" y="-39" type="curve" smooth="yes"/>
      <point x="792" y="-24"/>
      <point x="737" y="31"/>
    </contour>
    <contour>
      <point x="1173" y="61" type="curve" smooth="yes"/>
      <point x="1168" y="68"/>
      <point x="1165" y="77"/>
      <point x="1165" y="82" type="curve" smooth="yes"/>
      <point x="1165" y="88"/>
      <point x="1166" y="93"/>
      <point x="1170" y="97" type="curve" smooth="yes"/>
      <point x="1204" y="131"/>
      <point x="1240" y="172"/>
      <point x="1258" y="199" type="curve" smooth="yes"/>
      <point x="1264" y="207"/>
      <point x="1269" y="208"/>
      <point x="1274" y="208" type="curve" smooth="yes"/>
      <point x="1281" y="208"/>
      <point x="1285" y="204"/>
      <point x="1291" y="200" type="curve" smooth="yes"/>
      <point x="1312" y="186"/>
      <point x="1376" y="118"/>
      <point x="1394" y="108" type="curve" smooth="yes"/>
      <point x="1402" y="102"/>
      <point x="1409" y="95"/>
      <point x="1409" y="86" type="curve" smooth="yes"/>
      <point x="1409" y="79"/>
      <point x="1405" y="75"/>
      <point x="1399" y="65" type="curve" smooth="yes"/>
      <point x="1389" y="43"/>
      <point x="1332" y="-24"/>
      <point x="1306" y="-39" type="curve" smooth="yes"/>
      <point x="1303" y="-41"/>
      <point x="1298" y="-43"/>
      <point x="1294" y="-43" type="curve" smooth="yes"/>
      <point x="1291" y="-43"/>
      <point x="1285" y="-41"/>
      <point x="1281" y="-39" type="curve" smooth="yes"/>
      <point x="1255" y="-24"/>
      <point x="1199" y="31"/>
    </contour>
    <contour>
      <point x="253" y="61" type="curve" smooth="yes"/>
      <point x="248" y="68"/>
      <point x="244" y="77"/>
      <point x="244" y="82" type="curve" smooth="yes"/>
      <point x="244" y="88"/>
      <point x="246" y="93"/>
      <point x="249" y="97" type="curve" smooth="yes"/>
      <point x="284" y="131"/>
      <point x="319" y="172"/>
      <point x="337" y="199" type="curve" smooth="yes"/>
      <point x="342" y="207"/>
      <point x="347" y="208"/>
      <point x="353" y="208" type="curve" smooth="yes"/>
      <point x="361" y="208"/>
      <point x="364" y="204"/>
      <point x="369" y="200" type="curve" smooth="yes"/>
      <point x="390" y="186"/>
      <point x="455" y="118"/>
      <point x="473" y="108" type="curve" smooth="yes"/>
      <point x="480" y="102"/>
      <point x="487" y="95"/>
      <point x="487" y="86" type="curve" smooth="yes"/>
      <point x="487" y="79"/>
      <point x="484" y="75"/>
      <point x="479" y="65" type="curve" smooth="yes"/>
      <point x="468" y="43"/>
      <point x="410" y="-24"/>
      <point x="385" y="-39" type="curve" smooth="yes"/>
      <point x="382" y="-41"/>
      <point x="376" y="-43"/>
      <point x="373" y="-43" type="curve" smooth="yes"/>
      <point x="369" y="-43"/>
      <point x="364" y="-41"/>
      <point x="361" y="-39" type="curve" smooth="yes"/>
      <point x="333" y="-24"/>
      <point x="277" y="31"/>
    </contour>
  </outline>
</glyph>
<glyph name="minus" format="1">
  <advance width="1018"/>
  <unicode hex="2212"/>
  <outline>
    <contour>
      <point x="147" y="638" type="curve"/>
      <point x="123" y="638"/>
      <point x="118" y="627"/>
      <point x="118" y="609" type="curve" smooth="yes"/>
      <point x="118" y="532" type="line" smooth="yes"/>
      <point x="118" y="516"/>
      <point x="123" y="506"/>
      <point x="147" y="506" type="curve" smooth="yes"/>
      <point x="147" y="506"/>
      <point x="443" y="511"/>
      <point x="541" y="511" type="curve" smooth="yes"/>
      <point x="624" y="511"/>
      <point x="871" y="506"/>
      <point x="871" y="506" type="curve"/>
      <point x="894" y="506"/>
      <point x="900" y="516"/>
      <point x="900" y="532" type="curve" smooth="yes"/>
      <point x="900" y="609" type="line" smooth="yes"/>
      <point x="900" y="634"/>
      <point x="886" y="638"/>
      <point x="874" y="638" type="curve" smooth="yes"/>
      <point x="879" y="638"/>
      <point x="650" y="633"/>
      <point x="537" y="633" type="curve" smooth="yes"/>
      <point x="421" y="633"/>
      <point x="147" y="638"/>
    </contour>
  </outline>
</glyph>
<glyph name="lessequal" format="1">
  <advance width="1018"/>
  <unicode hex="2264"/>
  <outline>
    <contour>
      <point x="161" y="137" type="curve"/>
      <point x="138" y="137"/>
      <point x="133" y="125"/>
      <point x="133" y="108" type="curve" smooth="yes"/>
      <point x="133" y="31" type="line" smooth="yes"/>
      <point x="133" y="14"/>
      <point x="138" y="4"/>
      <point x="161" y="4" type="curve" smooth="yes"/>
      <point x="161" y="4"/>
      <point x="412" y="9"/>
      <point x="511" y="9" type="curve" smooth="yes"/>
      <point x="593" y="9"/>
      <point x="855" y="4"/>
      <point x="855" y="4" type="curve"/>
      <point x="879" y="4"/>
      <point x="884" y="14"/>
      <point x="884" y="31" type="curve" smooth="yes"/>
      <point x="884" y="108" type="line" smooth="yes"/>
      <point x="884" y="133"/>
      <point x="869" y="137"/>
      <point x="858" y="137" type="curve" smooth="yes"/>
      <point x="858" y="137"/>
      <point x="609" y="131"/>
      <point x="508" y="131" type="curve" smooth="yes"/>
      <point x="390" y="131"/>
      <point x="161" y="137"/>
    </contour>
    <contour>
      <point x="163" y="527" type="curve"/>
      <point x="181" y="520"/>
      <point x="351" y="448"/>
      <point x="457" y="398" type="curve" smooth="yes"/>
      <point x="549" y="355"/>
      <point x="810" y="219"/>
      <point x="810" y="219" type="curve"/>
      <point x="814" y="217"/>
      <point x="817" y="217"/>
      <point x="823" y="217" type="curve" smooth="yes"/>
      <point x="830" y="217"/>
      <point x="838" y="221"/>
      <point x="846" y="235" type="curve" smooth="yes"/>
      <point x="879" y="305" type="line" smooth="yes"/>
      <point x="880" y="310"/>
      <point x="882" y="315"/>
      <point x="882" y="319" type="curve" smooth="yes"/>
      <point x="882" y="326"/>
      <point x="879" y="333"/>
      <point x="864" y="340" type="curve"/>
      <point x="864" y="340"/>
      <point x="650" y="438"/>
      <point x="575" y="473" type="curve" smooth="yes"/>
      <point x="518" y="498"/>
      <point x="402" y="557"/>
      <point x="321" y="597" type="curve"/>
      <point x="402" y="638"/>
      <point x="518" y="696"/>
      <point x="575" y="722" type="curve" smooth="yes"/>
      <point x="650" y="758"/>
      <point x="864" y="855"/>
      <point x="864" y="855" type="curve"/>
      <point x="879" y="862"/>
      <point x="882" y="869"/>
      <point x="882" y="876" type="curve" smooth="yes"/>
      <point x="882" y="880"/>
      <point x="880" y="886"/>
      <point x="879" y="891" type="curve" smooth="yes"/>
      <point x="846" y="961" type="line" smooth="yes"/>
      <point x="838" y="975"/>
      <point x="830" y="978"/>
      <point x="823" y="978" type="curve" smooth="yes"/>
      <point x="817" y="978"/>
      <point x="814" y="978"/>
      <point x="810" y="977" type="curve"/>
      <point x="810" y="977"/>
      <point x="581" y="860"/>
      <point x="489" y="817" type="curve" smooth="yes"/>
      <point x="368" y="760"/>
      <point x="274" y="718"/>
      <point x="163" y="670" type="curve" smooth="yes"/>
      <point x="145" y="663"/>
      <point x="133" y="655"/>
      <point x="133" y="636" type="curve" smooth="yes"/>
      <point x="133" y="561" type="line" smooth="yes"/>
      <point x="133" y="545"/>
      <point x="144" y="537"/>
    </contour>
  </outline>
</glyph>
<glyph name="shinsindothebrew" format="1">
  <advance width="1301"/>
  <unicode hex="FB2B"/>
  <outline>
    <contour>
      <point x="439" y="1199" type="curve" smooth="yes"/>
      <point x="439" y="1159"/>
      <point x="405" y="1127"/>
      <point x="366" y="1127" type="curve" smooth="yes"/>
      <point x="325" y="1127"/>
      <point x="292" y="1159"/>
      <point x="292" y="1199" type="curve" smooth="yes"/>
      <point x="292" y="1240"/>
      <point x="325" y="1272"/>
      <point x="366" y="1272" type="curve" smooth="yes"/>
      <point x="405" y="1272"/>
      <point x="439" y="1240"/>
    </contour>
    <component base="shinhebrew"/>
  </outline>
</glyph>
<glyph name="shindageshshindothebrew" format="1">
  <advance width="1301"/>
  <unicode hex="FB2C"/>
  <outline>
    <contour>
      <point x="1043" y="1199" type="curve" smooth="yes"/>
      <point x="1043" y="1159"/>
      <point x="1009" y="1127"/>
      <point x="970" y="1127" type="curve" smooth="yes"/>
      <point x="928" y="1127"/>
      <point x="896" y="1159"/>
      <point x="896" y="1199" type="curve" smooth="yes"/>
      <point x="896" y="1240"/>
      <point x="928" y="1272"/>
      <point x="970" y="1272" type="curve" smooth="yes"/>
      <point x="1009" y="1272"/>
      <point x="1043" y="1240"/>
    </contour>
    <component base="shinhebrew"/>
    <component base="dageshhebrew" xOffset="445"/>
  </outline>
</glyph>
<glyph name="dagger.001" format="1">
  <advance width="1048"/>
  <outline>
    <contour>
      <point x="579" y="262" type="curve"/>
      <point x="583" y="506"/>
      <point x="737" y="648"/>
      <point x="942" y="650" type="curve" smooth="yes"/>
      <point x="951" y="650"/>
      <point x="957" y="656"/>
      <point x="957" y="665" type="curve" smooth="yes"/>
      <point x="957" y="670"/>
      <point x="954" y="686"/>
      <point x="949" y="697" type="curve" smooth="yes"/>
      <point x="893" y="886" type="line" smooth="yes"/>
      <point x="889" y="900"/>
      <point x="882" y="903"/>
      <point x="864" y="903" type="curve" smooth="yes"/>
      <point x="801" y="903"/>
      <point x="655" y="740"/>
      <point x="599" y="566" type="curve" smooth="yes"/>
      <point x="593" y="550"/>
      <point x="586" y="541"/>
      <point x="583" y="541" type="curve" smooth="yes"/>
      <point x="579" y="541"/>
      <point x="575" y="552"/>
      <point x="575" y="579" type="curve" smooth="yes"/>
      <point x="575" y="672"/>
      <point x="626" y="1029"/>
      <point x="626" y="1192" type="curve" smooth="yes"/>
      <point x="626" y="1213"/>
      <point x="622" y="1226"/>
      <point x="604" y="1226" type="curve" smooth="yes"/>
      <point x="445" y="1226" type="line" smooth="yes"/>
      <point x="426" y="1226"/>
      <point x="421" y="1211"/>
      <point x="421" y="1201" type="curve" smooth="yes"/>
      <point x="421" y="1117"/>
      <point x="486" y="672"/>
      <point x="486" y="579" type="curve" smooth="yes"/>
      <point x="486" y="552"/>
      <point x="484" y="539"/>
      <point x="480" y="539" type="curve" smooth="yes"/>
      <point x="477" y="539"/>
      <point x="468" y="550"/>
      <point x="460" y="566" type="curve" smooth="yes"/>
      <point x="382" y="761"/>
      <point x="260" y="903"/>
      <point x="197" y="903" type="curve" smooth="yes"/>
      <point x="179" y="903"/>
      <point x="172" y="898"/>
      <point x="169" y="886" type="curve" smooth="yes"/>
      <point x="113" y="703" type="line" smooth="yes"/>
      <point x="109" y="690"/>
      <point x="106" y="674"/>
      <point x="106" y="669" type="curve" smooth="yes"/>
      <point x="106" y="658"/>
      <point x="109" y="650"/>
      <point x="118" y="650" type="curve" smooth="yes"/>
      <point x="310" y="650"/>
      <point x="482" y="498"/>
      <point x="482" y="260" type="curve" smooth="yes"/>
      <point x="482" y="133"/>
      <point x="446" y="-32"/>
      <point x="446" y="-46" type="curve" smooth="yes"/>
      <point x="446" y="-55"/>
      <point x="448" y="-68"/>
      <point x="450" y="-75" type="curve" smooth="yes"/>
      <point x="457" y="-111"/>
      <point x="496" y="-255"/>
      <point x="509" y="-289" type="curve" smooth="yes"/>
      <point x="515" y="-303"/>
      <point x="525" y="-312"/>
      <point x="534" y="-312" type="curve" smooth="yes"/>
      <point x="543" y="-312"/>
      <point x="554" y="-303"/>
      <point x="557" y="-287" type="curve" smooth="yes"/>
      <point x="607" y="-86" type="line" smooth="yes"/>
      <point x="611" y="-74"/>
      <point x="613" y="-53"/>
      <point x="613" y="-46" type="curve" smooth="yes"/>
      <point x="613" y="-32"/>
      <point x="579" y="135"/>
    </contour>
  </outline>
</glyph>
<glyph name="daggerdbl.001" format="1">
  <advance width="1047"/>
  <outline>
    <contour>
      <point x="916" y="323" type="curve" smooth="yes"/>
      <point x="927" y="323"/>
      <point x="934" y="330"/>
      <point x="934" y="340" type="curve" smooth="yes"/>
      <point x="934" y="344"/>
      <point x="932" y="353"/>
      <point x="928" y="362" type="curve" smooth="yes"/>
      <point x="864" y="529" type="line" smooth="yes"/>
      <point x="858" y="541"/>
      <point x="844" y="549"/>
      <point x="837" y="549" type="curve" smooth="yes"/>
      <point x="801" y="547"/>
      <point x="710" y="482"/>
      <point x="620" y="347" type="curve" smooth="yes"/>
      <point x="613" y="335"/>
      <point x="606" y="328"/>
      <point x="602" y="328" type="curve" smooth="yes"/>
      <point x="599" y="328"/>
      <point x="599" y="351"/>
      <point x="599" y="369" type="curve" smooth="yes"/>
      <point x="599" y="599"/>
      <point x="771" y="753"/>
      <point x="977" y="754" type="curve" smooth="yes"/>
      <point x="985" y="754"/>
      <point x="991" y="760"/>
      <point x="991" y="769" type="curve" smooth="yes"/>
      <point x="991" y="774"/>
      <point x="985" y="790"/>
      <point x="982" y="801" type="curve" smooth="yes"/>
      <point x="910" y="987" type="line" smooth="yes"/>
      <point x="905" y="1000"/>
      <point x="901" y="1005"/>
      <point x="894" y="1005" type="curve" smooth="yes"/>
      <point x="821" y="1000"/>
      <point x="696" y="867"/>
      <point x="617" y="658" type="curve" smooth="yes"/>
      <point x="611" y="643"/>
      <point x="604" y="638"/>
      <point x="600" y="638" type="curve" smooth="yes"/>
      <point x="597" y="638"/>
      <point x="593" y="647"/>
      <point x="593" y="667" type="curve" smooth="yes"/>
      <point x="593" y="760"/>
      <point x="662" y="1043"/>
      <point x="662" y="1199" type="curve" smooth="yes"/>
      <point x="662" y="1219"/>
      <point x="655" y="1226"/>
      <point x="640" y="1226" type="curve" smooth="yes"/>
      <point x="599" y="1226"/>
      <point x="536" y="1224"/>
      <point x="462" y="1224" type="curve" smooth="yes"/>
      <point x="448" y="1224"/>
      <point x="443" y="1209"/>
      <point x="443" y="1202" type="curve" smooth="yes"/>
      <point x="443" y="1106"/>
      <point x="509" y="760"/>
      <point x="509" y="667" type="curve" smooth="yes"/>
      <point x="509" y="647"/>
      <point x="506" y="638"/>
      <point x="501" y="638" type="curve" smooth="yes"/>
      <point x="498" y="638"/>
      <point x="491" y="643"/>
      <point x="486" y="658" type="curve" smooth="yes"/>
      <point x="409" y="864"/>
      <point x="282" y="1002"/>
      <point x="212" y="1005" type="curve" smooth="yes"/>
      <point x="200" y="1005"/>
      <point x="195" y="1002"/>
      <point x="190" y="987" type="curve" smooth="yes"/>
      <point x="116" y="805" type="line" smooth="yes"/>
      <point x="113" y="797"/>
      <point x="106" y="780"/>
      <point x="106" y="773" type="curve" smooth="yes"/>
      <point x="106" y="761"/>
      <point x="111" y="754"/>
      <point x="122" y="754" type="curve" smooth="yes"/>
      <point x="315" y="754"/>
      <point x="508" y="599"/>
      <point x="508" y="369" type="curve" smooth="yes"/>
      <point x="508" y="349"/>
      <point x="508" y="328"/>
      <point x="503" y="328" type="curve" smooth="yes"/>
      <point x="500" y="328"/>
      <point x="496" y="335"/>
      <point x="487" y="347" type="curve" smooth="yes"/>
      <point x="393" y="487"/>
      <point x="319" y="545"/>
      <point x="269" y="547" type="curve" smooth="yes"/>
      <point x="262" y="547"/>
      <point x="249" y="543"/>
      <point x="244" y="527" type="curve" smooth="yes"/>
      <point x="185" y="368" type="line" smooth="yes"/>
      <point x="179" y="353"/>
      <point x="176" y="342"/>
      <point x="176" y="339" type="curve" smooth="yes"/>
      <point x="176" y="328"/>
      <point x="183" y="323"/>
      <point x="192" y="323" type="curve" smooth="yes"/>
      <point x="344" y="323"/>
      <point x="508" y="308"/>
      <point x="508" y="138" type="curve" smooth="yes"/>
      <point x="508" y="32"/>
      <point x="470" y="-88"/>
      <point x="470" y="-99" type="curve" smooth="yes"/>
      <point x="470" y="-106"/>
      <point x="473" y="-118"/>
      <point x="475" y="-125" type="curve" smooth="yes"/>
      <point x="532" y="-292" type="line" smooth="yes"/>
      <point x="536" y="-305"/>
      <point x="545" y="-310"/>
      <point x="554" y="-310" type="curve" smooth="yes"/>
      <point x="563" y="-310"/>
      <point x="571" y="-305"/>
      <point x="575" y="-292" type="curve" smooth="yes"/>
      <point x="629" y="-125" type="line" smooth="yes"/>
      <point x="633" y="-116"/>
      <point x="634" y="-106"/>
      <point x="634" y="-99" type="curve" smooth="yes"/>
      <point x="634" y="-86"/>
      <point x="600" y="32"/>
      <point x="600" y="138" type="curve" smooth="yes"/>
      <point x="600" y="308"/>
      <point x="763" y="323"/>
    </contour>
  </outline>
</glyph>
<glyph name="orn.1" format="1">
  <advance width="1036"/>
  <outline>
    <contour>
      <point x="337" y="-219" type="curve" smooth="yes"/>
      <point x="351" y="-238"/>
      <point x="385" y="-274"/>
      <point x="409" y="-294" type="curve" smooth="yes"/>
      <point x="419" y="-303"/>
      <point x="428" y="-308"/>
      <point x="438" y="-308" type="curve" smooth="yes"/>
      <point x="446" y="-308"/>
      <point x="455" y="-301"/>
      <point x="462" y="-292" type="curve" smooth="yes"/>
      <point x="534" y="-190"/>
      <point x="554" y="60"/>
      <point x="554" y="238" type="curve" smooth="yes"/>
      <point x="554" y="534"/>
      <point x="697" y="704"/>
      <point x="918" y="704" type="curve" smooth="yes"/>
      <point x="927" y="704"/>
      <point x="928" y="708"/>
      <point x="928" y="715" type="curve" smooth="yes"/>
      <point x="928" y="720"/>
      <point x="927" y="727"/>
      <point x="923" y="740" type="curve" smooth="yes"/>
      <point x="907" y="794"/>
      <point x="887" y="843"/>
      <point x="864" y="891" type="curve" smooth="yes"/>
      <point x="860" y="900"/>
      <point x="857" y="901"/>
      <point x="848" y="901" type="curve" smooth="yes"/>
      <point x="776" y="896"/>
      <point x="626" y="732"/>
      <point x="570" y="557" type="curve" smooth="yes"/>
      <point x="564" y="541"/>
      <point x="561" y="532"/>
      <point x="557" y="532" type="curve" smooth="yes"/>
      <point x="554" y="532"/>
      <point x="550" y="543"/>
      <point x="550" y="570" type="curve" smooth="yes"/>
      <point x="550" y="667"/>
      <point x="609" y="1055"/>
      <point x="609" y="1192" type="curve" smooth="yes"/>
      <point x="609" y="1213"/>
      <point x="607" y="1226"/>
      <point x="599" y="1226" type="curve" smooth="yes"/>
      <point x="590" y="1226"/>
      <point x="577" y="1221"/>
      <point x="556" y="1209" type="curve" smooth="yes"/>
      <point x="523" y="1194"/>
      <point x="479" y="1170"/>
      <point x="426" y="1132" type="curve" smooth="yes"/>
      <point x="414" y="1124"/>
      <point x="414" y="1113"/>
      <point x="414" y="1103" type="curve" smooth="yes"/>
      <point x="414" y="1050"/>
      <point x="486" y="663"/>
      <point x="486" y="570" type="curve" smooth="yes"/>
      <point x="486" y="543"/>
      <point x="484" y="530"/>
      <point x="480" y="530" type="curve" smooth="yes"/>
      <point x="477" y="530"/>
      <point x="472" y="541"/>
      <point x="464" y="557" type="curve" smooth="yes"/>
      <point x="395" y="732"/>
      <point x="260" y="898"/>
      <point x="190" y="901" type="curve" smooth="yes"/>
      <point x="179" y="901"/>
      <point x="176" y="898"/>
      <point x="171" y="889" type="curve" smooth="yes"/>
      <point x="147" y="844"/>
      <point x="131" y="795"/>
      <point x="111" y="742" type="curve" smooth="yes"/>
      <point x="109" y="737"/>
      <point x="106" y="725"/>
      <point x="106" y="720" type="curve" smooth="yes"/>
      <point x="106" y="711"/>
      <point x="109" y="704"/>
      <point x="118" y="704" type="curve" smooth="yes"/>
      <point x="373" y="704"/>
      <point x="484" y="443"/>
      <point x="484" y="238" type="curve" smooth="yes"/>
      <point x="484" y="106"/>
      <point x="460" y="-111"/>
      <point x="337" y="-193" type="curve" smooth="yes"/>
      <point x="332" y="-197"/>
      <point x="330" y="-200"/>
      <point x="330" y="-204" type="curve" smooth="yes"/>
      <point x="330" y="-208"/>
      <point x="332" y="-212"/>
    </contour>
  </outline>
</glyph>
<glyph name="orn.4" format="1">
  <advance width="1045"/>
  <outline>
    <contour>
      <point x="355" y="-222" type="curve" smooth="yes"/>
      <point x="375" y="-249"/>
      <point x="410" y="-282"/>
      <point x="432" y="-299" type="curve" smooth="yes"/>
      <point x="439" y="-305"/>
      <point x="446" y="-310"/>
      <point x="453" y="-310" type="curve" smooth="yes"/>
      <point x="462" y="-310"/>
      <point x="472" y="-305"/>
      <point x="479" y="-294" type="curve" smooth="yes"/>
      <point x="554" y="-186"/>
      <point x="557" y="-82"/>
      <point x="557" y="115" type="curve" smooth="yes"/>
      <point x="557" y="291"/>
      <point x="704" y="368"/>
      <point x="858" y="368" type="curve" smooth="yes"/>
      <point x="869" y="368"/>
      <point x="871" y="369"/>
      <point x="871" y="375" type="curve" smooth="yes"/>
      <point x="871" y="378"/>
      <point x="869" y="385"/>
      <point x="865" y="396" type="curve" smooth="yes"/>
      <point x="850" y="446"/>
      <point x="835" y="493"/>
      <point x="816" y="541" type="curve" smooth="yes"/>
      <point x="812" y="550"/>
      <point x="803" y="550"/>
      <point x="795" y="550" type="curve" smooth="yes"/>
      <point x="746" y="549"/>
      <point x="650" y="453"/>
      <point x="575" y="319" type="curve" smooth="yes"/>
      <point x="568" y="306"/>
      <point x="564" y="299"/>
      <point x="561" y="299" type="curve" smooth="yes"/>
      <point x="557" y="299"/>
      <point x="556" y="310"/>
      <point x="556" y="328" type="curve" smooth="yes"/>
      <point x="556" y="557"/>
      <point x="715" y="801"/>
      <point x="921" y="803" type="curve" smooth="yes"/>
      <point x="932" y="803"/>
      <point x="937" y="807"/>
      <point x="937" y="816" type="curve" smooth="yes"/>
      <point x="937" y="819"/>
      <point x="937" y="824"/>
      <point x="930" y="843" type="curve" smooth="yes"/>
      <point x="907" y="900"/>
      <point x="893" y="941"/>
      <point x="865" y="993" type="curve" smooth="yes"/>
      <point x="862" y="998"/>
      <point x="858" y="1002"/>
      <point x="850" y="1002" type="curve" smooth="yes"/>
      <point x="780" y="997"/>
      <point x="652" y="846"/>
      <point x="571" y="638" type="curve" smooth="yes"/>
      <point x="568" y="627"/>
      <point x="563" y="619"/>
      <point x="559" y="619" type="curve" smooth="yes"/>
      <point x="556" y="619"/>
      <point x="552" y="627"/>
      <point x="552" y="647" type="curve" smooth="yes"/>
      <point x="552" y="740"/>
      <point x="609" y="1040"/>
      <point x="609" y="1199" type="curve" smooth="yes"/>
      <point x="609" y="1222"/>
      <point x="606" y="1226"/>
      <point x="597" y="1226" type="curve" smooth="yes"/>
      <point x="443" y="1226" type="line" smooth="yes"/>
      <point x="432" y="1226"/>
      <point x="431" y="1221"/>
      <point x="431" y="1202" type="curve" smooth="yes"/>
      <point x="431" y="1040"/>
      <point x="487" y="740"/>
      <point x="487" y="647" type="curve" smooth="yes"/>
      <point x="487" y="627"/>
      <point x="484" y="619"/>
      <point x="480" y="619" type="curve" smooth="yes"/>
      <point x="477" y="619"/>
      <point x="472" y="627"/>
      <point x="468" y="638" type="curve" smooth="yes"/>
      <point x="396" y="846"/>
      <point x="260" y="998"/>
      <point x="190" y="1002" type="curve" smooth="yes"/>
      <point x="179" y="1002"/>
      <point x="176" y="998"/>
      <point x="172" y="991" type="curve" smooth="yes"/>
      <point x="113" y="841" type="line"/>
      <point x="109" y="831"/>
      <point x="106" y="823"/>
      <point x="106" y="817" type="curve" smooth="yes"/>
      <point x="106" y="810"/>
      <point x="109" y="805"/>
      <point x="118" y="803" type="curve"/>
      <point x="344" y="794"/>
      <point x="486" y="557"/>
      <point x="486" y="328" type="curve" smooth="yes"/>
      <point x="486" y="308"/>
      <point x="486" y="299"/>
      <point x="482" y="299" type="curve" smooth="yes"/>
      <point x="479" y="299"/>
      <point x="475" y="306"/>
      <point x="466" y="319" type="curve" smooth="yes"/>
      <point x="371" y="459"/>
      <point x="298" y="541"/>
      <point x="248" y="543" type="curve" smooth="yes"/>
      <point x="240" y="543"/>
      <point x="231" y="543"/>
      <point x="228" y="534" type="curve" smooth="yes"/>
      <point x="210" y="489"/>
      <point x="193" y="446"/>
      <point x="176" y="390" type="curve" smooth="yes"/>
      <point x="172" y="380"/>
      <point x="172" y="378"/>
      <point x="172" y="376" type="curve" smooth="yes"/>
      <point x="172" y="371"/>
      <point x="176" y="368"/>
      <point x="181" y="368" type="curve" smooth="yes"/>
      <point x="339" y="368"/>
      <point x="482" y="294"/>
      <point x="482" y="115" type="curve" smooth="yes"/>
      <point x="482" y="-12"/>
      <point x="462" y="-89"/>
      <point x="355" y="-193" type="curve" smooth="yes"/>
      <point x="351" y="-197"/>
      <point x="347" y="-200"/>
      <point x="347" y="-207" type="curve" smooth="yes"/>
      <point x="347" y="-212"/>
      <point x="349" y="-215"/>
    </contour>
  </outline>
</glyph>
<glyph name="three.001" format="1">
  <advance width="896"/>
  <outline>
    <contour>
      <point x="192" y="158" type="curve" smooth="yes"/>
      <point x="195" y="165"/>
      <point x="200" y="169"/>
      <point x="207" y="169" type="curve" smooth="yes"/>
      <point x="208" y="169"/>
      <point x="212" y="166"/>
      <point x="214" y="166" type="curve" smooth="yes"/>
      <point x="269" y="149"/>
      <point x="340" y="131"/>
      <point x="393" y="131" type="curve" smooth="yes"/>
      <point x="466" y="131"/>
      <point x="534" y="147"/>
      <point x="568" y="183" type="curve" smooth="yes"/>
      <point x="593" y="210"/>
      <point x="604" y="249"/>
      <point x="604" y="285" type="curve" smooth="yes"/>
      <point x="604" y="342"/>
      <point x="586" y="385"/>
      <point x="539" y="424" type="curve" smooth="yes"/>
      <point x="494" y="457"/>
      <point x="378" y="480"/>
      <point x="296" y="480" type="curve" smooth="yes"/>
      <point x="287" y="480"/>
      <point x="282" y="484"/>
      <point x="282" y="489" type="curve" smooth="yes"/>
      <point x="282" y="493"/>
      <point x="284" y="496"/>
      <point x="285" y="500" type="curve" smooth="yes"/>
      <point x="308" y="534"/>
      <point x="333" y="588"/>
      <point x="355" y="611" type="curve" smooth="yes"/>
      <point x="366" y="620"/>
      <point x="376" y="627"/>
      <point x="400" y="633" type="curve" smooth="yes"/>
      <point x="452" y="647"/>
      <point x="530" y="684"/>
      <point x="530" y="769" type="curve" smooth="yes"/>
      <point x="530" y="830"/>
      <point x="484" y="855"/>
      <point x="453" y="867" type="curve" smooth="yes"/>
      <point x="395" y="891"/>
      <point x="294" y="903"/>
      <point x="195" y="903" type="curve" smooth="yes"/>
      <point x="186" y="903"/>
      <point x="178" y="907"/>
      <point x="178" y="916" type="curve" smooth="yes"/>
      <point x="178" y="920"/>
      <point x="178" y="928"/>
      <point x="183" y="934" type="curve" smooth="yes"/>
      <point x="195" y="954"/>
      <point x="233" y="1007"/>
      <point x="276" y="1055" type="curve" smooth="yes"/>
      <point x="284" y="1062"/>
      <point x="291" y="1067"/>
      <point x="299" y="1067" type="curve" smooth="yes"/>
      <point x="335" y="1067"/>
      <point x="518" y="1047"/>
      <point x="600" y="985" type="curve" smooth="yes"/>
      <point x="660" y="941"/>
      <point x="681" y="893"/>
      <point x="681" y="835" type="curve" smooth="yes"/>
      <point x="681" y="773"/>
      <point x="641" y="694"/>
      <point x="536" y="620" type="curve" smooth="yes"/>
      <point x="532" y="617"/>
      <point x="530" y="613"/>
      <point x="530" y="611" type="curve" smooth="yes"/>
      <point x="530" y="607"/>
      <point x="536" y="604"/>
      <point x="545" y="600" type="curve" smooth="yes"/>
      <point x="669" y="561"/>
      <point x="749" y="477"/>
      <point x="749" y="368" type="curve" smooth="yes"/>
      <point x="749" y="238"/>
      <point x="667" y="116"/>
      <point x="577" y="46" type="curve" smooth="yes"/>
      <point x="503" y="-12"/>
      <point x="405" y="-29"/>
      <point x="340" y="-29" type="curve" smooth="yes"/>
      <point x="260" y="-29"/>
      <point x="161" y="-7"/>
      <point x="116" y="12" type="curve" smooth="yes"/>
      <point x="108" y="18"/>
      <point x="104" y="22"/>
      <point x="104" y="27" type="curve" smooth="yes"/>
      <point x="104" y="29"/>
      <point x="106" y="32"/>
      <point x="108" y="36" type="curve" smooth="yes"/>
      <point x="125" y="67"/>
      <point x="179" y="142"/>
    </contour>
  </outline>
</glyph>
